<svg xmlns="http://www.w3.org/2000/svg" width="675" height="325" viewBox="0 0 675 325"><rect width="100%" height="100%" fill="#ddd"/><path fill="#31343C" d="m176.34 129.965-19.31 23.62-2.25 2.79q1.89-.94 4.07-1.46 2.19-.51 4.7-.51 3.69 0 7.18 1.21 3.49 1.22 6.15 3.67 2.65 2.45 4.27 6.1 1.62 3.64 1.62 8.5 0 4.54-1.66 8.53-1.67 3.98-4.69 6.95-3.01 2.97-7.26 4.68t-9.38 1.71q-5.23 0-9.36-1.66-4.14-1.67-7.07-4.66t-4.48-7.2-1.55-9.34q0-4.59 1.87-9.43 1.86-4.84 5.78-10.06l15.52-20.83q.81-1.08 2.37-1.84 1.55-.77 3.57-.77zm-16.79 56.7q2.65 0 4.88-.9t3.83-2.52 2.5-3.8.9-4.75q0-2.79-.86-5.02-.85-2.22-2.43-3.78-1.57-1.55-3.78-2.36-2.2-.81-4.86-.81-2.65 0-4.81.9t-3.69 2.5-2.39 3.78-.86 4.7q0 2.7.75 4.93.74 2.22 2.2 3.8 1.46 1.57 3.62 2.45 2.17.88 5 .88m30.37-56.7h44.96v4.82q0 2.16-.45 3.48-.45 1.33-.9 2.23l-24.66 50.76q-.76 1.57-2.16 2.68-1.4 1.1-3.73 1.1h-8.06l25.16-49.73q.85-1.52 1.68-2.81.83-1.28 1.87-2.45h-31.14q-1.04 0-1.8-.76-.77-.77-.77-1.8zm68.58 10.08-2.29 13.54q2.16-.44 4.14-.65 1.98-.2 3.82-.2 5.13 0 9.05 1.53 3.91 1.53 6.57 4.23 2.65 2.7 4 6.32 1.35 3.63 1.35 7.81 0 5.18-1.82 9.45t-5.06 7.31-7.67 4.71q-4.44 1.66-9.66 1.66-3.06 0-5.8-.63-2.75-.63-5.15-1.69-2.41-1.05-4.46-2.43-2.05-1.37-3.67-2.9l3.42-4.72q1.08-1.53 2.84-1.53 1.12 0 2.29.72t2.68 1.57 3.56 1.58q2.04.72 4.92.72 3.06 0 5.4-.99t3.9-2.77q1.55-1.78 2.34-4.23.78-2.46.78-5.33 0-5.31-3.08-8.31-3.08-2.99-9.11-2.99-4.64 0-9.5 1.71l-6.93-1.98 5.4-31.59h32.13v4.73q0 2.38-1.48 3.86-1.49 1.49-5.04 1.49zm100.85 40.1-5.9 5.8-15.25-15.25-15.39 15.34-5.9-5.8 15.39-15.44-14.67-14.67 5.85-5.85 14.67 14.67 14.58-14.58 5.94 5.85-14.62 14.62zm37.44-31.01-5.85-1.03q.67-4.68 2.61-8.22 1.93-3.53 4.84-5.89 2.9-2.37 6.66-3.56 3.75-1.19 8.07-1.19 4.5 0 8.13 1.28 3.62 1.29 6.18 3.56 2.57 2.27 3.94 5.33t1.37 6.62q0 3.1-.69 5.46-.7 2.37-2.01 4.12-1.3 1.76-3.24 2.97-1.93 1.22-4.36 2.03 5.85 1.84 8.73 5.62t2.88 9.5q0 4.85-1.8 8.59t-4.86 6.28-7.09 3.85q-4.03 1.3-8.53 1.3-4.9 0-8.55-1.12-3.64-1.13-6.34-3.33-2.7-2.21-4.59-5.4-1.89-3.2-3.24-7.39l4.9-2.02q1.94-.81 3.63-.43 1.68.38 2.45 1.83.81 1.57 1.78 3.1.96 1.53 2.31 2.72t3.18 1.94q1.82.74 4.34.74 2.83 0 4.95-.92 2.11-.92 3.53-2.41t2.12-3.31q.69-1.82.69-3.67 0-2.34-.49-4.25-.5-1.91-2.07-3.26-1.58-1.35-4.52-2.11-2.95-.77-7.9-.77v-7.92q4.09-.04 6.79-.76t4.3-2.01q1.6-1.28 2.23-3.08t.63-3.96q0-4.59-2.57-6.97-2.56-2.39-6.84-2.39-1.98 0-3.64.56-1.67.57-2.99 1.58-1.33 1.01-2.23 2.36t-1.35 2.97q-.77 2.07-2 2.75-1.24.67-3.49.31m68.94 35.55h16.69q1.8 0 2.86 1.01 1.06 1.02 1.06 2.68v6.66H441.7v-3.69q0-1.12.47-2.36t1.51-2.23l19.75-19.8q2.48-2.52 4.44-4.81 1.95-2.3 3.26-4.55 1.3-2.25 2-4.57.7-2.31.7-4.88 0-2.34-.68-4.12-.67-1.77-1.91-2.99-1.24-1.21-2.97-1.82t-3.89-.61q-1.98 0-3.67.56-1.69.57-2.99 1.58-1.31 1.01-2.21 2.36t-1.35 2.97q-.76 2.07-1.98 2.75-1.21.67-3.51.31l-5.85-1.03q.68-4.68 2.61-8.22 1.94-3.53 4.84-5.89 2.9-2.37 6.66-3.56t8.08-1.19q4.5 0 8.23 1.33 3.74 1.33 6.39 3.76 2.66 2.43 4.14 5.85 1.49 3.42 1.49 7.6 0 3.6-1.06 6.66t-2.83 5.85q-1.78 2.79-4.17 5.4-2.38 2.61-4.99 5.31l-14.67 14.99q2.11-.63 4.21-.97 2.09-.34 3.98-.34m45.31-44.64-2.29 13.54q2.16-.44 4.14-.65 1.98-.2 3.82-.2 5.13 0 9.05 1.53 3.91 1.53 6.57 4.23 2.65 2.7 4 6.32 1.35 3.63 1.35 7.81 0 5.18-1.82 9.45t-5.06 7.31-7.67 4.71q-4.44 1.66-9.66 1.66-3.06 0-5.8-.63-2.75-.63-5.15-1.69-2.41-1.05-4.46-2.43-2.05-1.37-3.67-2.9l3.42-4.72q1.08-1.53 2.84-1.53 1.12 0 2.29.72t2.68 1.57 3.56 1.58q2.04.72 4.92.72 3.06 0 5.4-.99t3.9-2.77q1.55-1.78 2.34-4.23.78-2.46.78-5.33 0-5.31-3.08-8.31-3.08-2.99-9.11-2.99-4.64 0-9.5 1.71l-6.93-1.98 5.4-31.59h32.13v4.73q0 2.38-1.48 3.86-1.49 1.49-5.04 1.49z"/></svg>