<svg xmlns="http://www.w3.org/2000/svg" width="1350" height="520" viewBox="0 0 1350 520"><rect width="100%" height="100%" fill="#eee"/><path fill="#aaa" d="M325.88 302.77h20.67v14.71h-63.6v-14.71h23.29v-67.02q0-3.97.24-8.18l-16.54 13.83q-1.43 1.11-2.82 1.39t-2.62.04q-1.24-.24-2.19-.84-.95-.59-1.43-1.31l-6.2-8.5 35.06-29.82h16.14zm49.52-66.38-10.33-1.83q1.19-8.27 4.61-14.51t8.55-10.41q5.12-4.18 11.76-6.28 6.64-2.11 14.27-2.11 7.95 0 14.35 2.27 6.4 2.26 10.93 6.28 4.53 4.01 6.96 9.42 2.42 5.4 2.42 11.68 0 5.49-1.23 9.66-1.23 4.18-3.54 7.28-2.3 3.1-5.72 5.25-3.42 2.14-7.71 3.57 10.33 3.26 15.42 9.94t5.09 16.77q0 8.59-3.18 15.19t-8.59 11.09q-5.4 4.49-12.52 6.8-7.11 2.3-15.06 2.3-8.67 0-15.11-1.99-6.44-1.98-11.21-5.88-4.77-3.89-8.11-9.54-3.34-5.64-5.72-13.04l8.67-3.57q3.41-1.44 6.4-.76 2.98.68 4.33 3.22 1.43 2.78 3.14 5.49 1.71 2.7 4.09 4.81 2.39 2.1 5.61 3.41 3.22 1.32 7.67 1.32 5.01 0 8.74-1.63 3.74-1.63 6.24-4.26 2.51-2.62 3.74-5.84t1.23-6.48q0-4.13-.87-7.51-.88-3.38-3.66-5.77-2.78-2.38-7.99-3.73t-13.95-1.35v-14q7.23-.08 12-1.35t7.6-3.54q2.82-2.26 3.93-5.44t1.11-7q0-8.11-4.53-12.32t-12.08-4.21q-3.5 0-6.44.99t-5.29 2.78q-2.34 1.79-3.93 4.18-1.59 2.38-2.39 5.24-1.35 3.66-3.53 4.85-2.19 1.2-6.17.56m109.63-16.06-4.05 23.93q3.82-.79 7.31-1.15 3.5-.36 6.76-.36 9.06 0 15.98 2.7 6.92 2.71 11.61 7.48t7.07 11.17q2.39 6.4 2.39 13.79 0 9.14-3.22 16.69-3.22 7.56-8.95 12.92-5.72 5.37-13.55 8.31t-17.05 2.94q-5.41 0-10.26-1.11t-9.1-2.98-7.87-4.3q-3.62-2.42-6.48-5.12l6.04-8.35q1.91-2.7 5.01-2.7 1.99 0 4.05 1.27 2.07 1.27 4.73 2.78 2.67 1.51 6.29 2.78 3.61 1.28 8.7 1.28 5.41 0 9.54-1.75t6.88-4.89q2.74-3.14 4.13-7.48 1.39-4.33 1.39-9.42 0-9.38-5.44-14.66-5.45-5.29-16.1-5.29-8.19 0-16.78 3.02l-12.24-3.5 9.54-55.81h56.76v8.35q0 4.21-2.62 6.84-2.62 2.62-8.9 2.62zM629.17 260q0 15.03-3.22 26.12t-8.91 18.32q-5.68 7.24-13.43 10.77-7.75 3.54-16.74 3.54-8.98 0-16.65-3.54-7.67-3.53-13.32-10.77-5.64-7.23-8.82-18.32T544.9 260q0-15.1 3.18-26.15t8.82-18.29q5.65-7.23 13.32-10.77t16.65-3.54q8.99 0 16.74 3.54t13.43 10.77q5.69 7.24 8.91 18.29t3.22 26.15m-20.27 0q0-12.48-1.83-20.67t-4.89-13.04-7.04-6.79q-3.97-1.95-8.27-1.95-4.21 0-8.14 1.95-3.94 1.94-6.96 6.79t-4.81 13.04-1.79 20.67 1.79 20.67 4.81 13.04 6.96 6.8q3.93 1.94 8.14 1.94 4.3 0 8.27-1.94 3.98-1.95 7.04-6.8t4.89-13.04T608.9 260m146.51 31.17L745 301.42l-26.95-26.95-27.19 27.11-10.41-10.26 27.18-27.26-25.91-25.92 10.33-10.34 25.92 25.92 25.76-25.76 10.49 10.34-25.84 25.84zm83.56-70.84-4.06 23.93q3.82-.79 7.32-1.15t6.76-.36q9.06 0 15.97 2.7 6.92 2.71 11.61 7.48t7.08 11.17q2.38 6.4 2.38 13.79 0 9.14-3.22 16.69-3.22 7.56-8.94 12.92-5.73 5.37-13.56 8.31t-17.05 2.94q-5.4 0-10.25-1.11t-9.11-2.98q-4.25-1.87-7.87-4.3-3.61-2.42-6.48-5.12l6.05-8.35q1.9-2.7 5-2.7 1.99 0 4.06 1.27t4.73 2.78 6.28 2.78q3.62 1.28 8.7 1.28 5.41 0 9.54-1.75 4.14-1.75 6.88-4.89t4.14-7.48q1.39-4.33 1.39-9.42 0-9.38-5.45-14.66-5.45-5.29-16.1-5.29-8.19 0-16.77 3.02l-12.25-3.5 9.54-55.81h56.77v8.35q0 4.21-2.63 6.84-2.62 2.62-8.9 2.62zm104.38 78.86h29.5q3.18 0 5.04 1.79 1.87 1.79 1.87 4.73v11.77H900.9v-6.52q0-1.99.83-4.17.84-2.19 2.67-3.94l34.9-34.98q4.37-4.45 7.83-8.5 3.46-4.06 5.76-8.03 2.31-3.98 3.54-8.07 1.23-4.1 1.23-8.63 0-4.13-1.19-7.27t-3.38-5.29-5.25-3.22-6.87-1.07q-3.5 0-6.48.99t-5.29 2.78q-2.3 1.79-3.89 4.18-1.59 2.38-2.39 5.24-1.35 3.66-3.5 4.85-2.14 1.2-6.2.56l-10.33-1.83q1.19-8.27 4.61-14.51t8.54-10.41q5.13-4.18 11.77-6.28 6.64-2.11 14.27-2.11 7.95 0 14.55 2.35 6.6 2.34 11.29 6.63 4.69 4.3 7.31 10.34t2.62 13.44q0 6.36-1.86 11.76-1.87 5.41-5.01 10.34-3.14 4.92-7.36 9.54-4.21 4.61-8.82 9.38l-25.92 26.47q3.74-1.11 7.44-1.71 3.69-.6 7.03-.6M1075.32 260q0 15.03-3.22 26.12t-8.9 18.32q-5.69 7.24-13.44 10.77-7.75 3.54-16.73 3.54-8.99 0-16.66-3.54-7.67-3.53-13.31-10.77-5.65-7.23-8.83-18.32T991.05 260q0-15.1 3.18-26.15t8.83-18.29q5.64-7.23 13.31-10.77t16.66-3.54q8.98 0 16.73 3.54t13.44 10.77q5.68 7.24 8.9 18.29t3.22 26.15m-20.27 0q0-12.48-1.83-20.67t-4.89-13.04-7.03-6.79q-3.98-1.95-8.27-1.95-4.22 0-8.15 1.95-3.94 1.94-6.96 6.79t-4.81 13.04-1.79 20.67 1.79 20.67 4.81 13.04 6.96 6.8q3.93 1.94 8.15 1.94 4.29 0 8.27-1.94 3.97-1.95 7.03-6.8t4.89-13.04 1.83-20.67"/></svg>