<svg xmlns="http://www.w3.org/2000/svg" width="525" height="310" viewBox="0 0 525 310"><rect width="100%" height="100%" fill="#ddd"/><path fill="#111" d="m118.735 137.535-1.78 10.53q1.68-.35 3.22-.5 1.54-.16 2.97-.16 3.99 0 7.04 1.19 3.04 1.19 5.11 3.29 2.06 2.1 3.11 4.92 1.05 2.81 1.05 6.07 0 4.02-1.41 7.35-1.42 3.32-3.94 5.69-2.52 2.36-5.97 3.65-3.45 1.3-7.51 1.3-2.38 0-4.51-.49-2.14-.49-4.01-1.31-1.87-.83-3.46-1.89-1.6-1.07-2.86-2.26l2.66-3.68q.84-1.19 2.21-1.19.87 0 1.78.56t2.09 1.23q1.17.66 2.76 1.22t3.83.56q2.38 0 4.2-.77t3.03-2.15 1.82-3.29.61-4.15q0-4.13-2.39-6.45-2.4-2.33-7.09-2.33-3.61 0-7.39 1.33l-5.39-1.54 4.2-24.57h24.99v3.67q0 1.86-1.15 3.01-1.16 1.16-3.92 1.16zm45.96 34.72h12.98q1.4 0 2.23.79.82.78.82 2.08v5.18h-34.72v-2.87q0-.88.37-1.84.36-.96 1.17-1.73l15.36-15.4q1.93-1.96 3.45-3.75 1.52-1.78 2.54-3.53 1.01-1.75 1.56-3.55.54-1.81.54-3.8 0-1.82-.53-3.2-.52-1.39-1.48-2.33-.97-.95-2.31-1.42-1.35-.47-3.03-.47-1.54 0-2.85.44-1.32.43-2.33 1.22-1.02.79-1.72 1.84t-1.05 2.31q-.59 1.61-1.54 2.13-.94.53-2.73.25l-4.55-.81q.53-3.64 2.03-6.38 1.51-2.75 3.77-4.59 2.25-1.84 5.18-2.76 2.92-.93 6.28-.93 3.5 0 6.4 1.03 2.91 1.03 4.97 2.92 2.07 1.89 3.22 4.55 1.16 2.66 1.16 5.92 0 2.8-.82 5.18-.83 2.38-2.21 4.55t-3.24 4.2q-1.85 2.03-3.88 4.13l-11.41 11.65q1.64-.49 3.27-.75t3.1-.26m35.24-34.72-1.78 10.53q1.68-.35 3.22-.5 1.54-.16 2.97-.16 3.99 0 7.04 1.19 3.04 1.19 5.11 3.29 2.06 2.1 3.11 4.92 1.05 2.81 1.05 6.07 0 4.02-1.41 7.35-1.42 3.32-3.94 5.69-2.52 2.36-5.97 3.65-3.45 1.3-7.51 1.3-2.38 0-4.51-.49-2.14-.49-4.01-1.31-1.87-.83-3.46-1.89-1.6-1.07-2.86-2.26l2.66-3.68q.84-1.19 2.21-1.19.87 0 1.78.56t2.09 1.23q1.17.66 2.76 1.22t3.83.56q2.38 0 4.2-.77t3.03-2.15 1.82-3.29.61-4.15q0-4.13-2.39-6.45-2.4-2.33-7.09-2.33-3.61 0-7.39 1.33l-5.39-1.54 4.2-24.57h24.99v3.67q0 1.86-1.15 3.01-1.16 1.16-3.92 1.16zm78.44 31.18-4.59 4.52-11.86-11.87-11.97 11.94-4.59-4.52 11.97-12-11.41-11.41 4.55-4.55 11.41 11.41 11.34-11.34 4.62 4.55-11.37 11.37zm29.12-24.11-4.55-.81q.52-3.64 2.03-6.38 1.5-2.75 3.76-4.59t5.18-2.76q2.92-.93 6.28-.93 3.5 0 6.32 1 2.82.99 4.81 2.76 2 1.77 3.07 4.15 1.06 2.38 1.06 5.14 0 2.42-.54 4.26-.54 1.83-1.56 3.2-1.01 1.36-2.52 2.31-1.5.94-3.39 1.57 4.55 1.44 6.79 4.38t2.24 7.38q0 3.78-1.4 6.69-1.4 2.9-3.78 4.88t-5.51 2.99q-3.14 1.02-6.64 1.02-3.81 0-6.65-.88-2.83-.87-4.93-2.59-2.1-1.71-3.57-4.2-1.47-2.48-2.52-5.74l3.81-1.57q1.51-.63 2.82-.33 1.31.29 1.91 1.41.63 1.23 1.38 2.42t1.8 2.12q1.05.92 2.47 1.5t3.38.58q2.2 0 3.85-.72 1.64-.72 2.75-1.87 1.1-1.16 1.64-2.57.54-1.42.54-2.86 0-1.82-.38-3.3-.39-1.49-1.61-2.54-1.23-1.05-3.52-1.65-2.29-.59-6.14-.59v-6.16q3.18-.04 5.28-.6t3.35-1.55q1.24-1 1.73-2.4t.49-3.08q0-3.57-2-5.43-1.99-1.85-5.32-1.85-1.54 0-2.83.44-1.3.43-2.33 1.22t-1.73 1.84-1.05 2.31q-.6 1.61-1.56 2.13-.96.53-2.71.25m59.39 29.22h9.1v6.48h-28v-6.48h10.26v-29.5q0-1.75.1-3.61l-7.28 6.09q-.63.49-1.24.62-.61.12-1.15.01-.55-.1-.97-.36-.42-.27-.63-.58l-2.73-3.75 15.44-13.12h7.1zm52.33-18.83q0 6.62-1.42 11.5t-3.92 8.07q-2.5 3.18-5.91 4.74-3.42 1.56-7.37 1.56-3.96 0-7.33-1.56-3.38-1.56-5.87-4.74-2.48-3.19-3.88-8.07t-1.4-11.5q0-6.65 1.4-11.51 1.4-4.87 3.88-8.05 2.49-3.19 5.87-4.74 3.37-1.56 7.33-1.56 3.95 0 7.37 1.56 3.41 1.55 5.91 4.74 2.5 3.18 3.92 8.05 1.42 4.86 1.42 11.51m-8.92 0q0-5.49-.81-9.1-.81-3.6-2.15-5.74-1.35-2.13-3.1-2.99t-3.64-.86q-1.86 0-3.59.86t-3.06 2.99q-1.33 2.14-2.12 5.74-.78 3.61-.78 9.1 0 5.5.78 9.1.79 3.61 2.12 5.74 1.33 2.14 3.06 3 1.73.85 3.59.85 1.89 0 3.64-.85 1.75-.86 3.1-3 1.34-2.13 2.15-5.74.81-3.6.81-9.1"/></svg>