<svg xmlns="http://www.w3.org/2000/svg" width="638" height="550" viewBox="0 0 638 550"><rect width="100%" height="100%" fill="#111"/><path fill="#aaa" d="m165.49 244.27-18.23 22.32-2.13 2.63q1.79-.89 3.85-1.38t4.44-.49q3.49 0 6.78 1.15t5.8 3.46q2.51 2.32 4.04 5.76t1.53 8.03q0 4.3-1.57 8.06-1.58 3.76-4.42 6.56-2.85 2.81-6.87 4.42-4.01 1.62-8.86 1.62-4.93 0-8.84-1.57-3.91-1.58-6.67-4.4-2.76-2.83-4.23-6.8-1.47-3.98-1.47-8.82 0-4.34 1.77-8.9 1.76-4.57 5.46-9.5l14.66-19.68q.77-1.02 2.23-1.74 1.47-.73 3.38-.73zm-15.85 53.55q2.51 0 4.61-.85t3.61-2.38 2.36-3.59.85-4.48q0-2.64-.81-4.74-.8-2.1-2.29-3.57t-3.57-2.23q-2.08-.77-4.59-.77t-4.55.85-3.48 2.36q-1.45 1.51-2.26 3.57-.8 2.06-.8 4.44 0 2.55.7 4.66.7 2.1 2.08 3.59t3.42 2.32q2.04.82 4.72.82m34.85-35.44-5.52-.98q.63-4.42 2.46-7.75 1.83-3.34 4.57-5.57t6.29-3.36 7.63-1.13q4.25 0 7.67 1.22 3.42 1.21 5.84 3.35 2.43 2.15 3.72 5.04 1.3 2.89 1.3 6.25 0 2.93-.66 5.16t-1.89 3.89-3.06 2.8q-1.83 1.15-4.12 1.92 5.52 1.74 8.24 5.31t2.72 8.97q0 4.59-1.7 8.11-1.7 3.53-4.59 5.93t-6.69 3.64q-3.81 1.23-8.06 1.23-4.63 0-8.07-1.06-3.45-1.07-6-3.15-2.54-2.08-4.33-5.1-1.78-3.02-3.06-6.97l4.63-1.91q1.83-.77 3.42-.4 1.6.36 2.32 1.72.76 1.48 1.68 2.93.91 1.44 2.19 2.57 1.27 1.13 2.99 1.83 1.73.7 4.1.7 2.68 0 4.68-.87t3.34-2.28q1.34-1.4 1.99-3.12.66-1.72.66-3.46 0-2.21-.46-4.02-.47-1.81-1.96-3.08-1.49-1.28-4.27-2-2.79-.72-7.46-.72v-7.48q3.87-.04 6.42-.72t4.06-1.89q1.5-1.22 2.1-2.92t.6-3.74q0-4.33-2.43-6.58-2.42-2.26-6.46-2.26-1.87 0-3.44.54-1.57.53-2.83 1.48-1.25.96-2.1 2.23-.85 1.28-1.27 2.81-.73 1.95-1.9 2.59-1.16.64-3.29.3m63.84 35.83q2.59 0 4.54-.75 1.96-.74 3.3-2.06t2.02-3.14q.68-1.83.68-3.96 0-5.05-2.81-7.65-2.8-2.59-7.73-2.59t-7.74 2.59q-2.8 2.6-2.8 7.65 0 2.13.68 3.96.68 1.82 2.01 3.14 1.34 1.32 3.3 2.06 1.95.75 4.55.75m0-46.71q-2.34 0-4.04.72t-2.83 1.94q-1.12 1.21-1.66 2.78-.53 1.57-.53 3.31 0 1.83.45 3.55t1.51 3.06 2.8 2.15q1.75.81 4.3.81t4.29-.81 2.8-2.15q1.07-1.34 1.51-3.06.45-1.72.45-3.55 0-1.74-.55-3.31-.56-1.57-1.66-2.78-1.11-1.22-2.81-1.94t-4.03-.72m10.37 22.18q5.61 1.83 8.28 5.59 2.68 3.76 2.68 9.2 0 4.08-1.55 7.4-1.55 3.31-4.36 5.65-2.8 2.34-6.73 3.61-3.93 1.28-8.69 1.28t-8.7-1.28q-3.93-1.27-6.73-3.61-2.81-2.34-4.36-5.65-1.55-3.32-1.55-7.4 0-5.44 2.68-9.2t8.29-5.59q-4.47-1.86-6.7-5.31-2.23-3.44-2.23-8.29 0-3.48 1.42-6.5 1.43-3.02 3.98-5.25t6.1-3.48q3.55-1.26 7.8-1.26t7.79 1.26q3.55 1.25 6.1 3.48t3.98 5.25q1.42 3.02 1.42 6.5 0 4.85-2.23 8.29-2.23 3.45-6.69 5.31m79.64 17.98-5.57 5.48-14.4-14.4-14.54 14.49-5.57-5.48 14.54-14.58-13.86-13.86 5.53-5.52 13.85 13.85 13.77-13.77 5.61 5.53-13.81 13.81zm44.67-37.87-2.17 12.8q2.04-.43 3.91-.62t3.61-.19q4.85 0 8.55 1.44 3.69 1.45 6.2 4t3.78 5.97q1.28 3.42 1.28 7.37 0 4.89-1.72 8.93t-4.78 6.91q-3.06 2.86-7.25 4.44-4.19 1.57-9.12 1.57-2.89 0-5.48-.59-2.59-.6-4.87-1.6-2.27-1-4.2-2.29-1.94-1.3-3.47-2.75l3.23-4.46q1.02-1.44 2.68-1.44 1.06 0 2.17.68 1.1.68 2.53 1.48 1.42.81 3.35 1.49 1.94.68 4.66.68 2.89 0 5.1-.93 2.21-.94 3.67-2.62 1.47-1.68 2.21-3.99.75-2.32.75-5.04 0-5.01-2.91-7.84t-8.61-2.83q-4.38 0-8.97 1.62l-6.54-1.87 5.1-29.84h30.34v4.47q0 2.25-1.4 3.65t-4.76 1.4zm49.3 0-2.17 12.8q2.04-.43 3.91-.62t3.61-.19q4.85 0 8.55 1.44 3.69 1.45 6.2 4t3.78 5.97q1.28 3.42 1.28 7.37 0 4.89-1.72 8.93t-4.78 6.91q-3.06 2.86-7.25 4.44-4.19 1.57-9.12 1.57-2.89 0-5.48-.59-2.59-.6-4.87-1.6-2.27-1-4.2-2.29-1.94-1.3-3.47-2.75l3.23-4.46q1.02-1.44 2.68-1.44 1.06 0 2.17.68 1.1.68 2.53 1.48 1.42.81 3.35 1.49 1.94.68 4.66.68 2.89 0 5.1-.93 2.21-.94 3.67-2.62 1.47-1.68 2.21-3.99.75-2.32.75-5.04 0-5.01-2.91-7.84t-8.61-2.83q-4.38 0-8.97 1.62l-6.54-1.87 5.1-29.84h30.34v4.47q0 2.25-1.4 3.65t-4.76 1.4zM509.36 275q0 8.03-1.72 13.96t-4.76 9.8-7.18 5.76q-4.15 1.89-8.95 1.89t-8.9-1.89-7.12-5.76-4.72-9.8-1.7-13.96q0-8.07 1.7-13.98t4.72-9.78q3.02-3.86 7.12-5.75 4.1-1.9 8.9-1.9t8.95 1.9q4.14 1.89 7.18 5.75 3.04 3.87 4.76 9.78t1.72 13.98m-10.84 0q0-6.67-.97-11.05-.98-4.38-2.62-6.97-1.63-2.59-3.76-3.63-2.12-1.04-4.42-1.04-2.25 0-4.36 1.04-2.1 1.04-3.71 3.63-1.62 2.59-2.58 6.97-.95 4.38-.95 11.05t.95 11.05q.96 4.38 2.58 6.97 1.61 2.59 3.71 3.64 2.11 1.04 4.36 1.04 2.3 0 4.42-1.04 2.13-1.05 3.76-3.64 1.64-2.59 2.62-6.97.97-4.38.97-11.05"/></svg>