<svg xmlns="http://www.w3.org/2000/svg" width="1345" height="900" viewBox="0 0 1345 900"><rect width="100%" height="100%" fill="#ddd"/><path fill="#31343C" d="M325.57 492.5h20.54v14.62h-63.2V492.5h23.15v-66.59q0-3.95.24-8.14l-16.44 13.75q-1.42 1.1-2.8 1.38t-2.61.04q-1.22-.24-2.17-.83t-1.42-1.3l-6.16-8.46 34.83-29.62h16.04zm49.22-65.96-10.27-1.82q1.18-8.21 4.58-14.41 3.4-6.21 8.49-10.35 5.1-4.15 11.69-6.24 6.6-2.1 14.19-2.1 7.9 0 14.25 2.25 6.36 2.25 10.87 6.24 4.5 3.99 6.91 9.37 2.41 5.37 2.41 11.61 0 5.45-1.23 9.6-1.22 4.15-3.51 7.23t-5.69 5.21-7.66 3.55q10.27 3.24 15.32 9.88 5.06 6.64 5.06 16.67 0 8.53-3.16 15.09-3.16 6.55-8.53 11.02-5.37 4.46-12.44 6.75t-14.97 2.29q-8.62 0-15.01-1.97-6.4-1.98-11.14-5.85t-8.06-9.48-5.69-12.95l8.61-3.56q3.4-1.42 6.36-.75t4.31 3.2q1.42 2.77 3.12 5.45 1.7 2.69 4.07 4.78 2.37 2.1 5.56 3.4 3.2 1.3 7.63 1.3 4.98 0 8.69-1.62t6.2-4.22q2.49-2.61 3.71-5.81 1.23-3.2 1.23-6.44 0-4.11-.87-7.46-.87-3.36-3.64-5.73-2.76-2.37-7.94-3.71-5.17-1.35-13.86-1.35v-13.9q7.19-.08 11.93-1.34 4.74-1.27 7.54-3.52 2.81-2.25 3.91-5.41 1.11-3.16 1.11-6.95 0-8.06-4.5-12.25-4.51-4.19-12.01-4.19-3.48 0-6.4.99t-5.25 2.77q-2.33 1.77-3.91 4.14t-2.37 5.22q-1.35 3.63-3.52 4.82-2.17 1.18-6.12.55m94.32 37.53h34.76V426.7q0-5.3.72-11.69zm51.75 0h14.38v11.29q0 1.58-1.03 2.73-1.03 1.14-2.92 1.14h-10.43v27.89h-16.99v-27.89h-48.19q-1.97 0-3.47-1.22-1.5-1.23-1.9-3.04l-2.05-9.88 54.11-72.28h18.49zm54.51-53.49-4.03 23.78q3.79-.79 7.27-1.14 3.47-.36 6.71-.36 9.01 0 15.88 2.69 6.88 2.68 11.54 7.42t7.03 11.1 2.37 13.71q0 9.08-3.2 16.59-3.2 7.5-8.89 12.84-5.69 5.33-13.47 8.25t-16.94 2.92q-5.38 0-10.2-1.1-4.81-1.11-9.04-2.96-4.23-1.86-7.82-4.27-3.6-2.41-6.44-5.1l6-8.29q1.9-2.69 4.98-2.69 1.98 0 4.03 1.27 2.05 1.26 4.7 2.76t6.24 2.77q3.6 1.26 8.65 1.26 5.37 0 9.48-1.74t6.83-4.86q2.73-3.12 4.11-7.42 1.39-4.31 1.39-9.36 0-9.33-5.42-14.58-5.41-5.25-15.99-5.25-8.14 0-16.67 3l-12.17-3.48 9.48-55.45h56.41v8.29q0 4.19-2.61 6.8-2.61 2.6-8.85 2.6zm177.04 70.39-10.35 10.19-26.78-26.78-27.02 26.94-10.35-10.19 27.02-27.1-25.75-25.75 10.27-10.27 25.75 25.75 25.6-25.59 10.42 10.27-25.67 25.67zm72.99-53.8q0 9.56 4.94 14.58 4.94 5.01 14.02 5.01 4.74 0 8.46-1.5 3.71-1.5 6.24-4.11 2.53-2.6 3.83-6.16 1.3-3.55 1.3-7.66 0-4.66-1.42-8.33-1.42-3.68-4.03-6.21-2.6-2.52-6.2-3.87-3.59-1.34-7.86-1.34-4.42 0-7.98 1.46-3.55 1.46-6.08 4.07t-3.87 6.2q-1.35 3.6-1.35 7.86m-9.55 79.95 35.47-44.32q1.34-1.66 2.52-3.24 1.19-1.58 2.3-3.16-3.95 2.53-8.69 3.83-4.74 1.31-9.96 1.31-5.92 0-11.61-2.06-5.69-2.05-10.11-6.2-4.43-4.15-7.15-10.27-2.73-6.12-2.73-14.34 0-7.66 2.85-14.38 2.84-6.71 7.97-11.77 5.14-5.05 12.33-7.98 7.19-2.92 15.88-2.92 8.77 0 15.76 2.77 6.99 2.76 11.93 7.74 4.93 4.98 7.58 11.93t2.65 15.25q0 5.29-.91 10.03t-2.57 9.12q-1.66 4.39-4.03 8.57-2.37 4.19-5.29 8.3l-26.15 37.29q-1.34 1.89-4.03 3.2-2.68 1.3-6.08 1.3zM978.66 450q0 14.93-3.2 25.95-3.19 11.03-8.84 18.21-5.65 7.19-13.35 10.71-7.71 3.51-16.63 3.51-8.93 0-16.55-3.51-7.63-3.52-13.24-10.71-5.61-7.18-8.77-18.21-3.16-11.02-3.16-25.95 0-15.01 3.16-25.99t8.77-18.17 13.24-10.7q7.62-3.52 16.55-3.52 8.92 0 16.63 3.52 7.7 3.51 13.35 10.7t8.84 18.17q3.2 10.98 3.2 25.99m-20.14 0q0-12.4-1.82-20.54-1.81-8.13-4.86-12.95-3.04-4.82-6.99-6.76-3.95-1.93-8.21-1.93-4.19 0-8.1 1.93-3.91 1.94-6.91 6.76-3.01 4.82-4.78 12.95-1.78 8.14-1.78 20.54 0 12.41 1.78 20.54 1.77 8.14 4.78 12.96 3 4.82 6.91 6.75 3.91 1.94 8.1 1.94 4.26 0 8.21-1.94 3.95-1.93 6.99-6.75 3.05-4.82 4.86-12.96 1.82-8.13 1.82-20.54m111.78 0q0 14.93-3.2 25.95-3.19 11.03-8.84 18.21-5.65 7.19-13.35 10.71-7.71 3.51-16.63 3.51-8.93 0-16.55-3.51-7.63-3.52-13.24-10.71-5.61-7.18-8.77-18.21-3.16-11.02-3.16-25.95 0-15.01 3.16-25.99t8.77-18.17 13.24-10.7q7.62-3.52 16.55-3.52 8.92 0 16.63 3.52 7.7 3.51 13.35 10.7t8.84 18.17q3.2 10.98 3.2 25.99m-20.14 0q0-12.4-1.82-20.54-1.81-8.13-4.86-12.95-3.04-4.82-6.99-6.76-3.95-1.93-8.21-1.93-4.19 0-8.1 1.93-3.91 1.94-6.91 6.76-3.01 4.82-4.78 12.95-1.78 8.14-1.78 20.54 0 12.41 1.78 20.54 1.77 8.14 4.78 12.96 3 4.82 6.91 6.75 3.91 1.94 8.1 1.94 4.26 0 8.21-1.94 3.95-1.93 6.99-6.75 3.05-4.82 4.86-12.96 1.82-8.13 1.82-20.54"/></svg>