<svg xmlns="http://www.w3.org/2000/svg" width="888" height="680" viewBox="0 0 888 680"><rect width="100%" height="100%" fill="#111"/><path fill="#aaa" d="M209.185 372.22q3.6 0 6.31-1.04 2.71-1.03 4.57-2.86t2.8-4.36q.95-2.54.95-5.49 0-7.02-3.9-10.62-3.89-3.6-10.73-3.6-6.85 0-10.74 3.6-3.9 3.6-3.9 10.62 0 2.95.95 5.49.94 2.53 2.8 4.36t4.57 2.86q2.72 1.04 6.32 1.04m0-64.84q-3.25 0-5.61 1t-3.92 2.68q-1.57 1.68-2.3 3.87-.74 2.18-.74 4.6 0 2.54.62 4.93t2.09 4.24q1.48 1.86 3.9 2.98t5.96 1.12 5.96-1.12q2.41-1.12 3.89-2.98 1.47-1.85 2.09-4.24t.62-4.93q0-2.42-.76-4.6-.77-2.19-2.3-3.87-1.54-1.68-3.9-2.68t-5.6-1m14.39 30.79q7.79 2.54 11.51 7.76 3.71 5.22 3.71 12.78 0 5.66-2.15 10.26t-6.05 7.85q-3.89 3.24-9.35 5.01t-12.06 1.77q-6.61 0-12.07-1.77t-9.35-5.01q-3.89-3.25-6.05-7.85-2.15-4.6-2.15-10.26 0-7.56 3.72-12.78 3.71-5.22 11.5-7.76-6.19-2.59-9.29-7.37t-3.1-11.51q0-4.83 1.98-9.02 1.97-4.19 5.51-7.29t8.47-4.84 10.83-1.74 10.82 1.74q4.93 1.74 8.47 4.84t5.52 7.29q1.97 4.19 1.97 9.02 0 6.73-3.1 11.51-3.09 4.78-9.29 7.37m54.05 34.05q3.6 0 6.31-1.04 2.71-1.03 4.57-2.86t2.8-4.36q.95-2.54.95-5.49 0-7.02-3.9-10.62-3.89-3.6-10.73-3.6-6.85 0-10.74 3.6-3.9 3.6-3.9 10.62 0 2.95.95 5.49.94 2.53 2.8 4.36t4.57 2.86q2.72 1.04 6.32 1.04m0-64.84q-3.25 0-5.61 1t-3.92 2.68q-1.57 1.68-2.3 3.87-.74 2.18-.74 4.6 0 2.54.62 4.93t2.09 4.24q1.48 1.86 3.9 2.98t5.96 1.12 5.96-1.12q2.41-1.12 3.89-2.98 1.47-1.85 2.09-4.24t.62-4.93q0-2.42-.76-4.6-.77-2.19-2.3-3.87-1.54-1.68-3.9-2.68t-5.6-1m14.39 30.79q7.79 2.54 11.51 7.76 3.71 5.22 3.71 12.78 0 5.66-2.15 10.26t-6.05 7.85q-3.89 3.24-9.35 5.01t-12.06 1.77q-6.61 0-12.07-1.77t-9.35-5.01q-3.89-3.25-6.05-7.85-2.15-4.6-2.15-10.26 0-7.56 3.72-12.78 3.71-5.22 11.5-7.76-6.19-2.59-9.29-7.37t-3.1-11.51q0-4.83 1.98-9.02 1.97-4.19 5.51-7.29t8.47-4.84 10.83-1.74 10.82 1.74q4.93 1.74 8.47 4.84t5.52 7.29q1.97 4.19 1.97 9.02 0 6.73-3.1 11.51-3.09 4.78-9.29 7.37m54.05 34.05q3.6 0 6.31-1.04 2.71-1.03 4.57-2.86t2.8-4.36q.95-2.54.95-5.49 0-7.02-3.9-10.62-3.89-3.6-10.73-3.6-6.85 0-10.74 3.6-3.9 3.6-3.9 10.62 0 2.95.95 5.49.94 2.53 2.8 4.36t4.57 2.86q2.72 1.04 6.32 1.04m0-64.84q-3.25 0-5.61 1t-3.92 2.68q-1.57 1.68-2.3 3.87-.74 2.18-.74 4.6 0 2.54.62 4.93t2.09 4.24q1.48 1.86 3.9 2.98t5.96 1.12 5.96-1.12q2.41-1.12 3.89-2.98 1.47-1.85 2.09-4.24t.62-4.93q0-2.42-.76-4.6-.77-2.19-2.3-3.87-1.54-1.68-3.9-2.68t-5.6-1m14.39 30.79q7.79 2.54 11.51 7.76 3.71 5.22 3.71 12.78 0 5.66-2.15 10.26t-6.05 7.85q-3.89 3.24-9.35 5.01t-12.06 1.77q-6.61 0-12.07-1.77t-9.35-5.01q-3.89-3.25-6.05-7.85-2.15-4.6-2.15-10.26 0-7.56 3.72-12.78 3.71-5.22 11.5-7.76-6.19-2.59-9.29-7.37t-3.1-11.51q0-4.83 1.98-9.02 1.97-4.19 5.51-7.29t8.47-4.84 10.83-1.74 10.82 1.74q4.93 1.74 8.47 4.84t5.52 7.29q1.97 4.19 1.97 9.02 0 6.73-3.1 11.51-3.09 4.78-9.29 7.37m110.57 24.96-7.73 7.61-20-20-20.18 20.12-7.73-7.61 20.18-20.24-19.23-19.23 7.67-7.67 19.23 19.23 19.12-19.11 7.78 7.67-19.17 19.17zm91.15-65.78-25.31 30.97-2.95 3.66q2.48-1.24 5.34-1.92t6.17-.68q4.84 0 9.41 1.6 4.57 1.59 8.05 4.8 3.48 3.22 5.61 8 2.12 4.78 2.12 11.15 0 5.96-2.18 11.18-2.19 5.22-6.14 9.12-3.95 3.89-9.53 6.13-5.57 2.24-12.3 2.24-6.84 0-12.27-2.18t-9.26-6.11q-3.84-3.92-5.87-9.44-2.04-5.51-2.04-12.24 0-6.02 2.45-12.36t7.58-13.19l20.36-27.31q1.06-1.42 3.09-2.42 2.04-1 4.69-1zm-22 74.34q3.48 0 6.4-1.18t5.01-3.31q2.1-2.12 3.28-4.98 1.18-2.87 1.18-6.23 0-3.66-1.12-6.58t-3.19-4.95q-2.06-2.04-4.96-3.1-2.89-1.06-6.37-1.06t-6.31 1.18-4.84 3.27q-2 2.1-3.13 4.96-1.12 2.86-1.12 6.16 0 3.54.98 6.46.97 2.92 2.89 4.99 1.92 2.06 4.75 3.22 2.83 1.15 6.55 1.15m68.55.53q3.6 0 6.32-1.04 2.71-1.03 4.57-2.86t2.8-4.36q.95-2.54.95-5.49 0-7.02-3.9-10.62-3.89-3.6-10.74-3.6-6.84 0-10.73 3.6-3.9 3.6-3.9 10.62 0 2.95.95 5.49.94 2.53 2.8 4.36t4.57 2.86q2.72 1.04 6.31 1.04m0-64.84q-3.24 0-5.6 1t-3.92 2.68q-1.57 1.68-2.31 3.87-.73 2.18-.73 4.6 0 2.54.62 4.93t2.09 4.24q1.48 1.86 3.9 2.98 2.41 1.12 5.95 1.12t5.96-1.12 3.9-2.98q1.47-1.85 2.09-4.24t.62-4.93q0-2.42-.77-4.6-.76-2.19-2.3-3.87-1.53-1.68-3.89-2.68t-5.61-1m14.4 30.79q7.79 2.54 11.51 7.76 3.71 5.22 3.71 12.78 0 5.66-2.15 10.26t-6.05 7.85q-3.89 3.24-9.35 5.01t-12.07 1.77q-6.6 0-12.06-1.77t-9.35-5.01q-3.9-3.25-6.05-7.85t-2.15-10.26q0-7.56 3.71-12.78 3.72-5.22 11.51-7.76-6.2-2.59-9.29-7.37-3.1-4.78-3.1-11.51 0-4.83 1.97-9.02 1.98-4.19 5.52-7.29t8.47-4.84q4.92-1.74 10.82-1.74t10.83 1.74 8.47 4.84 5.51 7.29q1.98 4.19 1.98 9.02 0 6.73-3.1 11.51-3.09 4.78-9.29 7.37m85.31 1.83q0 11.15-2.39 19.38-2.38 8.23-6.6 13.6t-9.97 8q-5.76 2.62-12.42 2.62-6.67 0-12.36-2.62-5.7-2.63-9.89-8t-6.55-13.6-2.36-19.38q0-11.21 2.36-19.41t6.55-13.57 9.89-7.99q5.69-2.63 12.36-2.63 6.66 0 12.42 2.63 5.75 2.62 9.97 7.99t6.6 13.57q2.39 8.2 2.39 19.41m-15.04 0q0-9.26-1.36-15.34-1.35-6.07-3.63-9.67-2.27-3.6-5.22-5.05-2.95-1.44-6.13-1.44-3.13 0-6.05 1.44-2.92 1.45-5.16 5.05-2.25 3.6-3.57 9.67-1.33 6.08-1.33 15.34 0 9.27 1.33 15.34 1.32 6.08 3.57 9.68 2.24 3.6 5.16 5.04 2.92 1.45 6.05 1.45 3.18 0 6.13-1.45 2.95-1.44 5.22-5.04 2.28-3.6 3.63-9.68 1.36-6.07 1.36-15.34"/></svg>