<svg xmlns="http://www.w3.org/2000/svg" width="713" height="713" viewBox="0 0 713 713"><rect width="100%" height="100%" fill="#111"/><path fill="#aaa" d="M145.005 322.155h47.45v5.09q0 2.28-.47 3.68-.48 1.4-.95 2.35l-26.03 53.58q-.81 1.66-2.28 2.83-1.47 1.16-3.94 1.16h-8.51l26.56-52.49q.9-1.61 1.78-2.97.88-1.35 1.97-2.59h-32.87q-1.09 0-1.9-.8-.81-.81-.81-1.9zm87.5 59.9h12.35v8.79h-38v-8.79h13.91v-40.04q0-2.37.15-4.89l-9.88 8.26q-.86.67-1.69.83-.83.17-1.57.03-.73-.14-1.3-.5t-.86-.78l-3.7-5.09 20.94-17.81h9.65zm29.59-39.66-6.18-1.09q.72-4.94 2.76-8.67t5.11-6.22q3.06-2.5 7.03-3.76 3.96-1.26 8.52-1.26 4.75 0 8.58 1.36 3.82 1.35 6.53 3.75 2.7 2.4 4.15 5.63t1.45 6.98q0 3.28-.73 5.77-.74 2.5-2.12 4.35t-3.42 3.13q-2.04 1.29-4.61 2.14 6.18 1.95 9.22 5.94t3.04 10.02q0 5.13-1.9 9.08-1.9 3.94-5.13 6.62t-7.48 4.06-9 1.38q-5.18 0-9.03-1.19-3.85-1.18-6.7-3.51t-4.84-5.7q-2-3.38-3.42-7.79l5.18-2.14q2.04-.86 3.82-.45 1.78.4 2.59 1.92.85 1.67 1.88 3.28 1.02 1.61 2.44 2.87 1.43 1.26 3.35 2.05 1.92.78 4.58.78 3 0 5.23-.97 2.23-.98 3.73-2.54 1.49-1.57 2.23-3.5.74-1.92.74-3.87 0-2.47-.53-4.49-.52-2.01-2.18-3.44t-4.77-2.23q-3.12-.81-8.34-.81v-8.36q4.32-.05 7.17-.81t4.54-2.11q1.68-1.36 2.35-3.26.66-1.9.66-4.18 0-4.84-2.7-7.36-2.71-2.51-7.22-2.51-2.09 0-3.85.59t-3.16 1.66-2.35 2.5q-.95 1.42-1.43 3.13-.8 2.19-2.11 2.9t-3.68.33m116.85 32.73-6.22 6.12-16.11-16.1-16.24 16.2-6.22-6.13 16.24-16.29-15.48-15.49 6.17-6.17 15.49 15.49 15.39-15.39 6.27 6.17-15.44 15.44zm32.63-52.97h47.45v5.09q0 2.28-.47 3.68-.48 1.4-.95 2.35l-26.03 53.58q-.81 1.66-2.28 2.83-1.47 1.16-3.94 1.16h-8.51l26.56-52.49q.9-1.61 1.78-2.97.88-1.35 1.97-2.59h-32.87q-1.09 0-1.9-.8-.81-.81-.81-1.9zm87.5 59.9h12.35v8.79h-38v-8.79h13.91v-40.04q0-2.37.15-4.89l-9.88 8.26q-.86.67-1.69.83-.83.17-1.57.03-.73-.14-1.3-.5t-.86-.78l-3.7-5.09 20.94-17.81h9.65zm29.59-39.66-6.18-1.09q.72-4.94 2.76-8.67t5.11-6.22q3.06-2.5 7.03-3.76 3.96-1.26 8.52-1.26 4.75 0 8.58 1.36 3.82 1.35 6.53 3.75 2.7 2.4 4.15 5.63t1.45 6.98q0 3.28-.73 5.77-.74 2.5-2.12 4.35t-3.42 3.13q-2.04 1.29-4.61 2.14 6.18 1.95 9.22 5.94t3.04 10.02q0 5.13-1.9 9.08-1.9 3.94-5.13 6.62t-7.48 4.06-9 1.38q-5.18 0-9.03-1.19-3.85-1.18-6.7-3.51t-4.84-5.7q-2-3.38-3.42-7.79l5.18-2.14q2.04-.86 3.82-.45 1.78.4 2.59 1.92.85 1.67 1.88 3.28 1.02 1.61 2.44 2.87 1.43 1.26 3.35 2.05 1.92.78 4.58.78 3 0 5.23-.97 2.23-.98 3.73-2.54 1.49-1.57 2.23-3.5.74-1.92.74-3.87 0-2.47-.53-4.49-.52-2.01-2.18-3.44t-4.77-2.23q-3.12-.81-8.34-.81v-8.36q4.32-.05 7.17-.81t4.54-2.11q1.68-1.36 2.35-3.26.66-1.9.66-4.18 0-4.84-2.7-7.36-2.71-2.51-7.22-2.51-2.09 0-3.85.59t-3.16 1.66-2.35 2.5q-.95 1.42-1.43 3.13-.8 2.19-2.11 2.9t-3.68.33"/></svg>