<svg xmlns="http://www.w3.org/2000/svg" width="490" height="325" viewBox="0 0 490 325"><rect width="100%" height="100%" fill="#ddd"/><path fill="#31343C" d="M107.765 168.29h14.3v-15.38q0-2.17.3-4.81zm21.29 0h5.92v4.64q0 .65-.43 1.13-.42.47-1.2.47h-4.29V186h-6.99v-11.47h-19.82q-.81 0-1.43-.51-.62-.5-.78-1.25l-.85-4.06 22.27-29.74h7.6zm18.3-15.18q0 3.93 2.03 6 2.03 2.06 5.77 2.06 1.95 0 3.48-.62 1.52-.62 2.57-1.69 1.03-1.07 1.57-2.53.54-1.47.54-3.16 0-1.91-.59-3.42-.58-1.52-1.66-2.55-1.07-1.04-2.55-1.6-1.48-.55-3.23-.55-1.82 0-3.28.6-1.47.6-2.5 1.67-1.05 1.08-1.6 2.56-.55 1.47-.55 3.23m-3.93 32.89 14.59-18.23q.55-.68 1.04-1.34.49-.64.94-1.3-1.62 1.05-3.57 1.58-1.95.54-4.1.54-2.43 0-4.78-.85-2.34-.84-4.15-2.55-1.83-1.71-2.95-4.22-1.12-2.52-1.12-5.9 0-3.16 1.17-5.92t3.29-4.84q2.11-2.08 5.06-3.28 2.96-1.21 6.54-1.21 3.6 0 6.48 1.14t4.91 3.19q2.03 2.04 3.12 4.9t1.09 6.28q0 2.17-.38 4.12-.37 1.95-1.05 3.76-.69 1.8-1.66 3.52-.97 1.73-2.18 3.42l-10.76 15.34q-.55.78-1.65 1.31-1.11.54-2.51.54zm66.98-23.5q0 6.14-1.32 10.68-1.31 4.53-3.64 7.49-2.32 2.96-5.49 4.4-3.17 1.45-6.84 1.45t-6.81-1.45q-3.13-1.44-5.44-4.4t-3.61-7.49q-1.3-4.54-1.3-10.68 0-6.17 1.3-10.69t3.61-7.47q2.31-2.96 5.44-4.41 3.14-1.45 6.81-1.45t6.84 1.45 5.49 4.41q2.33 2.95 3.64 7.47 1.32 4.52 1.32 10.69m-8.29 0q0-5.1-.74-8.45-.75-3.35-2-5.33t-2.88-2.78q-1.62-.79-3.38-.79-1.72 0-3.33.79-1.61.8-2.84 2.78-1.24 1.98-1.97 5.33t-.73 8.45q0 5.11.73 8.45.73 3.35 1.97 5.33 1.23 1.98 2.84 2.78t3.33.8q1.76 0 3.38-.8 1.63-.8 2.88-2.78t2-5.33q.74-3.34.74-8.45m59.9 12.74-4.26 4.19-11.01-11.01-11.12 11.08-4.26-4.19 11.12-11.15-10.6-10.6 4.23-4.22 10.59 10.59 10.53-10.52 4.29 4.22-10.56 10.56zm27.04-22.39-4.22-.75q.48-3.38 1.88-5.93t3.49-4.26q2.1-1.7 4.81-2.56 2.72-.87 5.84-.87 3.25 0 5.86.93 2.62.93 4.47 2.57 1.86 1.64 2.85 3.85t.99 4.78q0 2.24-.51 3.95-.5 1.7-1.44 2.97t-2.34 2.15q-1.4.87-3.15 1.46 4.22 1.33 6.3 4.06t2.08 6.86q0 3.51-1.3 6.2-1.3 2.7-3.51 4.54t-5.12 2.78-6.16.94q-3.54 0-6.17-.81t-4.58-2.41q-1.95-1.59-3.32-3.9-1.36-2.31-2.34-5.33l3.54-1.46q1.4-.58 2.62-.31 1.22.28 1.77 1.32.59 1.13 1.28 2.24.7 1.1 1.68 1.97.97.86 2.29 1.39 1.32.54 3.14.54 2.04 0 3.57-.67 1.53-.66 2.55-1.73 1.03-1.08 1.53-2.39.5-1.32.5-2.65 0-1.69-.35-3.07-.36-1.39-1.5-2.36-1.14-.98-3.27-1.53-2.12-.55-5.7-.55v-5.72q2.96-.03 4.91-.55t3.1-1.45q1.16-.93 1.61-2.23.46-1.3.46-2.86 0-3.31-1.86-5.03-1.85-1.73-4.94-1.73-1.43 0-2.63.41t-2.16 1.14-1.61 1.7q-.65.98-.97 2.15-.56 1.49-1.45 1.98t-2.52.23m49.79 25.67h12.06q1.3 0 2.06.74.77.73.77 1.93V186h-32.24v-2.67q0-.81.34-1.7.34-.9 1.09-1.61l14.26-14.3q1.79-1.82 3.2-3.48 1.42-1.65 2.36-3.28t1.45-3.3q.5-1.67.5-3.53 0-1.68-.49-2.97-.48-1.28-1.38-2.16-.89-.88-2.14-1.32t-2.81-.44q-1.43 0-2.65.41t-2.16 1.14q-.95.73-1.6 1.7-.65.98-.97 2.15-.55 1.49-1.43 1.98t-2.54.23l-4.22-.75q.49-3.38 1.88-5.93 1.4-2.55 3.5-4.26 2.09-1.7 4.81-2.56 2.71-.87 5.83-.87 3.25 0 5.95.96t4.61 2.72q1.92 1.75 2.99 4.22 1.08 2.47 1.08 5.49 0 2.6-.77 4.81-.76 2.21-2.05 4.23-1.28 2.02-3 3.9-1.72 1.89-3.61 3.83l-10.59 10.83q1.52-.46 3.03-.7 1.52-.25 2.88-.25m32.73-32.24-1.66 9.79q1.56-.33 2.99-.47 1.43-.15 2.76-.15 3.71 0 6.54 1.1 2.82 1.11 4.74 3.06t2.89 4.57q.98 2.61.98 5.63 0 3.74-1.32 6.83-1.31 3.09-3.65 5.28t-5.55 3.4q-3.2 1.2-6.97 1.2-2.21 0-4.19-.45-1.98-.46-3.72-1.22-1.74-.77-3.22-1.76t-2.65-2.09l2.47-3.42q.78-1.1 2.05-1.1.81 0 1.66.52.84.52 1.93 1.13 1.09.62 2.57 1.14t3.56.52q2.21 0 3.9-.71 1.69-.72 2.81-2 1.12-1.29 1.69-3.06t.57-3.85q0-3.83-2.23-5.99-2.22-2.16-6.58-2.16-3.35 0-6.86 1.23l-5-1.43 3.9-22.82h23.2v3.42q0 1.72-1.07 2.79t-3.64 1.07z"/></svg>