<svg xmlns="http://www.w3.org/2000/svg" width="149" height="41" viewBox="0 0 149 41"><rect width="100%" height="100%" fill="#eee"/><path fill="#aaa" d="M40.96 26.235h2.73v1.94h-8.4v-1.94h3.08v-8.85q0-.53.03-1.09l-2.18 1.83q-.19.15-.37.19-.19.03-.35 0t-.29-.11-.19-.17l-.82-1.13 4.63-3.93h2.13zm6.9-3.78h4.62v-4.97q0-.7.1-1.55zm6.88 0h1.91v1.5q0 .21-.14.36-.13.15-.38.15h-1.39v3.71h-2.26v-3.71h-6.4q-.26 0-.46-.16t-.26-.4l-.27-1.32 7.19-9.6h2.46zm5.91-4.91q0 1.27.66 1.94.65.67 1.86.67.63 0 1.13-.2.49-.2.82-.55.34-.34.51-.82.18-.47.18-1.02 0-.61-.19-1.1t-.54-.83q-.34-.33-.82-.51t-1.05-.18q-.58 0-1.06.19-.47.2-.81.54-.33.35-.51.83t-.18 1.04m-1.27 10.63 4.72-5.89.33-.43q.16-.21.31-.42-.53.33-1.16.51-.63.17-1.32.17-.79 0-1.55-.27-.75-.27-1.34-.83-.59-.55-.95-1.36t-.36-1.91q0-1.02.38-1.91.37-.89 1.06-1.56.68-.67 1.63-1.06.96-.39 2.12-.39t2.09.37q.93.36 1.59 1.03.65.66 1 1.58.36.92.36 2.03 0 .7-.13 1.33-.12.63-.34 1.21-.22.59-.53 1.14-.32.56-.71 1.11l-3.47 4.95q-.18.25-.54.43-.35.17-.81.17zm26.14-3.48-1.38 1.36-3.56-3.56-3.59 3.58-1.38-1.35 3.6-3.61-3.43-3.42 1.37-1.36 3.42 3.42 3.4-3.4 1.39 1.36-3.41 3.41zm9.09-2.24h4.62v-4.97q0-.7.09-1.55zm6.88 0h1.91v1.5q0 .21-.14.36t-.39.15h-1.38v3.71h-2.26v-3.71h-6.41q-.26 0-.46-.16t-.25-.4l-.27-1.32 7.19-9.6h2.46zm10.58 3.78h2.73v1.94h-8.4v-1.94h3.08v-8.85q0-.53.03-1.09l-2.19 1.83q-.18.15-.37.19-.18.03-.34 0-.17-.03-.29-.11-.13-.08-.19-.17l-.82-1.13 4.63-3.93h2.13z"/></svg>