<svg xmlns="http://www.w3.org/2000/svg" width="608" height="166" viewBox="0 0 608 166"><rect width="100%" height="100%" fill="#111"/><path fill="#aaa" d="m158.035 53.72-17.37 21.26-2.03 2.51q1.7-.85 3.67-1.32 1.96-.46 4.23-.46 3.32 0 6.46 1.09 3.14 1.1 5.53 3.3 2.39 2.21 3.85 5.49 1.45 3.28 1.45 7.65 0 4.1-1.49 7.68-1.5 3.58-4.22 6.26-2.71 2.67-6.54 4.21-3.82 1.54-8.44 1.54-4.7 0-8.43-1.5-3.72-1.5-6.35-4.19-2.64-2.7-4.03-6.48-1.4-3.79-1.4-8.41 0-4.13 1.68-8.48t5.2-9.05l13.98-18.75q.73-.98 2.12-1.66 1.4-.69 3.22-.69zm-15.1 51.03q2.39 0 4.39-.81t3.44-2.27 2.25-3.42q.81-1.97.81-4.28 0-2.51-.77-4.51-.77-2.01-2.19-3.4-1.41-1.4-3.4-2.13-1.98-.73-4.37-.73t-4.34.81q-1.94.81-3.32 2.25-1.37 1.44-2.14 3.4t-.77 4.23q0 2.43.67 4.44.66 2 1.98 3.42t3.26 2.21 4.5.79M211.455 83q0 7.65-1.64 13.3t-4.53 9.34q-2.9 3.68-6.85 5.49-3.95 1.8-8.52 1.8-4.58 0-8.49-1.8-3.91-1.81-6.78-5.49-2.88-3.69-4.5-9.34t-1.62-13.3q0-7.7 1.62-13.33t4.5-9.31q2.87-3.69 6.78-5.49t8.49-1.8q4.57 0 8.52 1.8t6.85 5.49q2.89 3.68 4.53 9.31t1.64 13.33m-10.33 0q0-6.36-.93-10.53t-2.49-6.64-3.58-3.47q-2.03-.99-4.21-.99-2.15 0-4.16.99-2 1-3.54 3.47t-2.45 6.64-.91 10.53.91 10.53 2.45 6.64 3.54 3.46q2.01 1 4.16 1 2.18 0 4.21-1 2.02-.99 3.58-3.46t2.49-6.64.93-10.53m35.85 22.11q2.47 0 4.33-.71t3.14-1.96q1.27-1.26 1.92-3t.65-3.77q0-4.81-2.67-7.28-2.68-2.48-7.37-2.48-4.7 0-7.37 2.48-2.68 2.47-2.68 7.28 0 2.03.65 3.77t1.92 3q1.28 1.25 3.14 1.96 1.87.71 4.34.71m0-44.51q-2.23 0-3.85.69t-2.69 1.84q-1.08 1.16-1.58 2.66-.51 1.49-.51 3.15 0 1.75.43 3.39.42 1.64 1.43 2.91 1.02 1.28 2.68 2.05t4.09.77 4.09-.77 2.67-2.05q1.01-1.27 1.44-2.91.42-1.64.42-3.39 0-1.66-.52-3.15-.53-1.5-1.58-2.66-1.06-1.15-2.68-1.84t-3.84-.69m9.88 21.14q5.34 1.74 7.9 5.33 2.55 3.58 2.55 8.77 0 3.89-1.48 7.04-1.48 3.16-4.15 5.39t-6.42 3.44q-3.75 1.22-8.28 1.22-4.54 0-8.29-1.22-3.74-1.21-6.41-3.44-2.68-2.23-4.16-5.39-1.47-3.15-1.47-7.04 0-5.19 2.55-8.77 2.55-3.59 7.89-5.33-4.25-1.78-6.37-5.06-2.13-3.28-2.13-7.9 0-3.32 1.36-6.19 1.35-2.88 3.78-5.01 2.43-2.12 5.82-3.32 3.38-1.19 7.43-1.19t7.43 1.19q3.38 1.2 5.81 3.32 2.43 2.13 3.79 5.01 1.35 2.87 1.35 6.19 0 4.62-2.12 7.9-2.13 3.28-6.38 5.06m75.9 17.13-5.31 5.23-13.73-13.73-13.85 13.81-5.31-5.22 13.86-13.9-13.21-13.2 5.27-5.26 13.2 13.2 13.12-13.12 5.35 5.26-13.16 13.16zm55.44 5.92h10.53v7.49h-32.4v-7.49h11.87V70.65q0-2.03.12-4.18l-8.43 7.05q-.72.57-1.43.71t-1.34.02-1.11-.42q-.49-.31-.73-.67l-3.16-4.34 17.86-15.18h8.22zm54.11-51.07-17.38 21.26-2.02 2.51q1.7-.85 3.66-1.32 1.97-.46 4.24-.46 3.32 0 6.46 1.09 3.13 1.1 5.52 3.3 2.39 2.21 3.85 5.49t1.46 7.65q0 4.1-1.5 7.68t-4.21 6.26q-2.71 2.67-6.54 4.21t-8.45 1.54q-4.69 0-8.42-1.5t-6.36-4.19q-2.63-2.7-4.03-6.48-1.4-3.79-1.4-8.41 0-4.13 1.69-8.48 1.68-4.35 5.2-9.05l13.97-18.75q.73-.98 2.13-1.66 1.4-.69 3.22-.69zm-15.11 51.03q2.39 0 4.4-.81 2-.81 3.44-2.27t2.25-3.42q.81-1.97.81-4.28 0-2.51-.77-4.51-.77-2.01-2.19-3.4-1.42-1.4-3.4-2.13-1.99-.73-4.38-.73t-4.33.81-3.32 2.25-2.15 3.4-.77 4.23q0 2.43.67 4.44.67 2 1.99 3.42 1.31 1.42 3.26 2.21 1.94.79 4.49.79m62.09-51.03-17.38 21.26-2.02 2.51q1.7-.85 3.66-1.32 1.97-.46 4.24-.46 3.32 0 6.46 1.09 3.13 1.1 5.52 3.3 2.39 2.21 3.85 5.49t1.46 7.65q0 4.1-1.5 7.68t-4.21 6.26q-2.71 2.67-6.54 4.21t-8.45 1.54q-4.69 0-8.42-1.5t-6.36-4.19q-2.63-2.7-4.03-6.48-1.4-3.79-1.4-8.41 0-4.13 1.69-8.48 1.68-4.35 5.2-9.05l13.97-18.75q.73-.98 2.13-1.66 1.4-.69 3.22-.69zm-15.11 51.03q2.39 0 4.4-.81 2-.81 3.44-2.27t2.25-3.42q.81-1.97.81-4.28 0-2.51-.77-4.51-.77-2.01-2.19-3.4-1.42-1.4-3.4-2.13-1.99-.73-4.38-.73t-4.33.81-3.32 2.25-2.15 3.4-.77 4.23q0 2.43.67 4.44.67 2 1.99 3.42 1.31 1.42 3.26 2.21 1.94.79 4.49.79"/></svg>