<svg xmlns="http://www.w3.org/2000/svg" width="629" height="430" viewBox="0 0 629 430"><rect width="100%" height="100%" fill="#eee"/><path fill="#aaa" d="m162.795 184.635-18.02 22.05-2.1 2.6q1.77-.88 3.8-1.36 2.04-.49 4.39-.49 3.45 0 6.7 1.14 3.26 1.13 5.73 3.42 2.48 2.29 3.99 5.69 1.52 3.4 1.52 7.94 0 4.24-1.56 7.96-1.55 3.72-4.37 6.49-2.81 2.77-6.78 4.37-3.97 1.59-8.76 1.59-4.87 0-8.73-1.55-3.87-1.56-6.6-4.35t-4.18-6.72q-1.44-3.93-1.44-8.71 0-4.29 1.74-8.8 1.74-4.52 5.4-9.39l14.49-19.45q.75-1 2.2-1.72 1.45-.71 3.34-.71zm-15.67 52.92q2.48 0 4.56-.84t3.57-2.35q1.49-1.52 2.33-3.55.84-2.04.84-4.43 0-2.61-.8-4.69-.79-2.08-2.26-3.53-1.47-1.44-3.53-2.2t-4.54-.76-4.49.84q-2.02.84-3.45 2.33-1.42 1.5-2.22 3.53-.8 2.04-.8 4.39 0 2.52.69 4.6.7 2.08 2.06 3.55 1.37 1.47 3.38 2.29 2.02.82 4.66.82m50.07-1.85h15.58q1.68 0 2.67.95.98.94.98 2.49v6.22h-41.66v-3.44q0-1.05.44-2.21.44-1.15 1.41-2.08l18.44-18.48q2.31-2.35 4.13-4.49 1.83-2.14 3.05-4.24t1.87-4.27q.65-2.16.65-4.55 0-2.19-.63-3.85t-1.79-2.79q-1.15-1.13-2.77-1.7t-3.63-.57q-1.85 0-3.43.53-1.57.52-2.79 1.47-1.22.94-2.06 2.2t-1.26 2.77q-.71 1.94-1.84 2.57-1.14.63-3.28.29l-5.46-.97q.63-4.36 2.44-7.66 1.8-3.3 4.51-5.5 2.71-2.21 6.22-3.32 3.5-1.11 7.54-1.11 4.2 0 7.68 1.23 3.49 1.24 5.97 3.51 2.47 2.27 3.86 5.46t1.39 7.1q0 3.36-.99 6.22-.99 2.85-2.65 5.46-1.66 2.6-3.88 5.04-2.23 2.43-4.66 4.95l-13.7 13.99q1.98-.59 3.93-.91 1.95-.31 3.72-.31m36.96-32.84q0 5.08 2.62 7.74 2.63 2.67 7.46 2.67 2.52 0 4.49-.8 1.98-.79 3.32-2.18t2.04-3.28q.69-1.89.69-4.07 0-2.48-.76-4.43-.75-1.95-2.14-3.3-1.38-1.34-3.3-2.06-1.91-.71-4.17-.71-2.36 0-4.25.78-1.89.77-3.23 2.16t-2.06 3.3q-.71 1.91-.71 4.18m-5.08 42.5 18.85-23.56q.72-.88 1.35-1.72t1.22-1.68q-2.1 1.34-4.62 2.03-2.52.7-5.3.7-3.15 0-6.17-1.1-3.02-1.09-5.38-3.29-2.35-2.21-3.8-5.46-1.45-3.26-1.45-7.63 0-4.07 1.52-7.64 1.51-3.57 4.24-6.26t6.55-4.24 8.44-1.55q4.66 0 8.38 1.47t6.34 4.11q2.63 2.65 4.03 6.34 1.41 3.7 1.41 8.11 0 2.81-.48 5.33t-1.37 4.85q-.88 2.34-2.14 4.56-1.26 2.23-2.81 4.41l-13.9 19.83q-.72 1-2.15 1.7-1.42.69-3.23.69zm104.53-13.9-5.5 5.42-14.24-14.24-14.36 14.32-5.5-5.42 14.36-14.4-13.69-13.7 5.46-5.46 13.69 13.7 13.61-13.61 5.54 5.46-13.65 13.65zm36.38-8.99h18.48v-19.87q0-2.81.37-6.21zm27.51 0h7.64v6.01q0 .84-.55 1.44-.54.61-1.55.61h-5.54v14.83h-9.03v-14.83h-25.62q-1.05 0-1.85-.65t-1.01-1.61l-1.09-5.25 28.77-38.43h9.83zm19.78-19.95-5.46-.97q.63-4.36 2.43-7.66 1.81-3.3 4.52-5.5 2.71-2.21 6.21-3.32 3.51-1.11 7.54-1.11 4.2 0 7.58 1.19 3.39 1.2 5.78 3.32t3.67 4.98q1.29 2.85 1.29 6.17 0 2.9-.66 5.1-.65 2.21-1.86 3.85-1.22 1.64-3.03 2.77-1.8 1.13-4.07 1.89 5.46 1.72 8.15 5.25 2.68 3.53 2.68 8.86 0 4.54-1.68 8.02-1.68 3.49-4.53 5.86-2.86 2.38-6.62 3.59-3.76 1.22-7.96 1.22-4.57 0-7.98-1.05-3.4-1.05-5.92-3.11-2.52-2.05-4.28-5.04-1.77-2.98-3.03-6.88l4.58-1.89q1.81-.76 3.38-.4 1.58.35 2.29 1.7.76 1.47 1.66 2.9.9 1.42 2.16 2.54 1.26 1.11 2.96 1.8 1.71.7 4.06.7 2.64 0 4.62-.87 1.97-.86 3.29-2.24 1.33-1.39 1.98-3.09t.65-3.42q0-2.19-.46-3.97-.46-1.79-1.93-3.05t-4.23-1.97q-2.75-.71-7.37-.71v-7.4q3.83-.04 6.35-.71t4.01-1.87 2.08-2.88q.58-1.68.58-3.69 0-4.29-2.39-6.51-2.39-2.23-6.38-2.23-1.85 0-3.41.53-1.55.52-2.79 1.47-1.24.94-2.08 2.2t-1.26 2.77q-.71 1.94-1.87 2.57-1.15.63-3.25.29m85.34 12.47q0 7.94-1.7 13.8t-4.7 9.68q-3.01 3.82-7.1 5.69-4.1 1.87-8.84 1.87-4.75 0-8.8-1.87t-7.04-5.69q-2.98-3.82-4.66-9.68t-1.68-13.8q0-7.98 1.68-13.81 1.68-5.84 4.66-9.66 2.99-3.83 7.04-5.7 4.05-1.86 8.8-1.86 4.74 0 8.84 1.86 4.09 1.87 7.1 5.7 3 3.82 4.7 9.66 1.7 5.83 1.7 13.81m-10.71 0q0-6.59-.96-10.92-.97-4.32-2.59-6.88-1.61-2.57-3.71-3.6-2.1-1.02-4.37-1.02-2.23 0-4.31 1.02-2.08 1.03-3.67 3.6-1.6 2.56-2.54 6.88-.95 4.33-.95 10.92 0 6.6.95 10.92.94 4.33 2.54 6.89 1.59 2.56 3.67 3.59t4.31 1.03q2.27 0 4.37-1.03t3.71-3.59q1.62-2.56 2.59-6.89.96-4.32.96-10.92"/></svg>