<svg xmlns="http://www.w3.org/2000/svg" width="856" height="450" viewBox="0 0 856 450"><rect width="100%" height="100%" fill="#111"/><path fill="#aaa" d="M203.13 255.85q3.45 0 6.05-.99t4.38-2.74q1.77-1.75 2.68-4.18.9-2.43.9-5.25 0-6.73-3.73-10.18-3.73-3.44-10.28-3.44t-10.28 3.44q-3.73 3.45-3.73 10.18 0 2.82.9 5.25.91 2.43 2.69 4.18t4.38 2.74q2.59.99 6.04.99m0-62.09q-3.11 0-5.37.96t-3.75 2.57q-1.5 1.61-2.21 3.7-.7 2.09-.7 4.41 0 2.42.59 4.71t2.01 4.07q1.41 1.78 3.72 2.85 2.32 1.08 5.71 1.08t5.71-1.08q2.31-1.07 3.73-2.85 1.41-1.78 2-4.07.6-2.29.6-4.71 0-2.32-.74-4.41-.73-2.09-2.2-3.7t-3.73-2.57-5.37-.96m13.79 29.49q7.45 2.43 11.01 7.43t3.56 12.23q0 5.42-2.06 9.83t-5.79 7.52q-3.73 3.1-8.95 4.8-5.23 1.69-11.56 1.69t-11.55-1.69q-5.23-1.7-8.96-4.8-3.73-3.11-5.79-7.52t-2.06-9.83q0-7.23 3.56-12.23t11.01-7.43q-5.93-2.49-8.89-7.06-2.97-4.58-2.97-11.02 0-4.63 1.89-8.65 1.9-4.01 5.29-6.97 3.39-2.97 8.1-4.64 4.72-1.66 10.37-1.66t10.37 1.66q4.72 1.67 8.11 4.64 3.39 2.96 5.28 6.97 1.89 4.02 1.89 8.65 0 6.44-2.96 11.02-2.97 4.57-8.9 7.06m44.8-26.44-2.88 17q2.71-.56 5.2-.82 2.48-.25 4.8-.25 6.44 0 11.36 1.92 4.91 1.92 8.25 5.31 3.33 3.39 5.02 7.94 1.7 4.55 1.7 9.8 0 6.5-2.29 11.87t-6.36 9.18q-4.06 3.81-9.63 5.9-5.56 2.09-12.12 2.09-3.84 0-7.29-.79-3.44-.79-6.47-2.12-3.02-1.32-5.59-3.05-2.57-1.72-4.6-3.64l4.29-5.93q1.36-1.92 3.56-1.92 1.41 0 2.88.9t3.36 1.98q1.9 1.07 4.47 1.97 2.57.91 6.18.91 3.85 0 6.78-1.24 2.94-1.25 4.89-3.48t2.94-5.31.99-6.7q0-6.66-3.87-10.42t-11.44-3.76q-5.82 0-11.93 2.15l-8.7-2.49 6.78-39.66h40.34v5.93q0 3-1.86 4.86-1.86 1.87-6.33 1.87zm93.45-12.66-24.24 29.66-2.82 3.51q2.37-1.19 5.11-1.84t5.91-.65q4.63 0 9.01 1.53 4.38 1.52 7.71 4.6t5.37 7.66q2.03 4.57 2.03 10.68 0 5.7-2.09 10.7t-5.87 8.73q-3.79 3.73-9.13 5.88-5.34 2.14-11.78 2.14-6.55 0-11.75-2.09t-8.87-5.84q-3.67-3.76-5.62-9.04-1.95-5.29-1.95-11.73 0-5.76 2.34-11.83 2.35-6.08 7.26-12.63l19.49-26.16q1.02-1.36 2.97-2.32t4.49-.96zm-21.07 71.19q3.33 0 6.13-1.13 2.79-1.13 4.8-3.16 2.01-2.04 3.14-4.78t1.13-5.96q0-3.5-1.08-6.3-1.07-2.79-3.05-4.74t-4.74-2.97q-2.77-1.02-6.11-1.02-3.33 0-6.04 1.13t-4.63 3.14q-1.93 2-3 4.74t-1.07 5.91q0 3.39.93 6.19.93 2.79 2.77 4.77 1.83 1.98 4.55 3.08 2.71 1.1 6.27 1.1m119.78-8.19-7.4 7.29-19.16-19.16L408 254.55l-7.4-7.29 19.32-19.38-18.42-18.42 7.35-7.34 18.42 18.42 18.3-18.31 7.46 7.35-18.36 18.36zm48.93-12.09h24.86v-26.73q0-3.78.51-8.36zm37 0h10.29v8.08q0 1.13-.74 1.95-.73.82-2.09.82h-7.46v19.94h-12.14v-19.94H493.2q-1.41 0-2.48-.88-1.08-.88-1.36-2.18l-1.47-7.06 38.7-51.7h13.22zm38.99-38.25-2.88 17q2.71-.56 5.2-.82 2.48-.25 4.8-.25 6.44 0 11.35 1.92 4.92 1.92 8.25 5.31 3.34 3.39 5.03 7.94 1.7 4.55 1.7 9.8 0 6.5-2.29 11.87t-6.36 9.18q-4.06 3.81-9.63 5.9t-12.12 2.09q-3.84 0-7.29-.79-3.44-.79-6.47-2.12-3.02-1.32-5.59-3.05-2.57-1.72-4.61-3.64l4.3-5.93q1.35-1.92 3.56-1.92 1.41 0 2.88.9t3.36 1.98q1.89 1.07 4.46 1.97 2.58.91 6.19.91 3.84 0 6.78-1.24 2.94-1.25 4.89-3.48t2.94-5.31.99-6.7q0-6.66-3.87-10.42-3.88-3.76-11.45-3.76-5.82 0-11.92 2.15l-8.7-2.49 6.78-39.66h40.34v5.93q0 3-1.86 4.86-1.87 1.87-6.33 1.87zM681.23 225q0 10.68-2.28 18.56-2.29 7.88-6.33 13.02-4.04 5.15-9.55 7.66t-11.89 2.51q-6.39 0-11.84-2.51t-9.46-7.66q-4.02-5.14-6.28-13.02T621.34 225q0-10.73 2.26-18.59 2.26-7.85 6.28-12.99 4.01-5.14 9.46-7.66 5.45-2.51 11.84-2.51 6.38 0 11.89 2.51 5.51 2.52 9.55 7.66t6.33 12.99q2.28 7.86 2.28 18.59m-14.4 0q0-8.87-1.3-14.69t-3.48-9.27q-2.17-3.44-5-4.83-2.82-1.38-5.87-1.38-3 0-5.8 1.38-2.79 1.39-4.94 4.83-2.15 3.45-3.42 9.27T635.75 225t1.27 14.69 3.42 9.27q2.15 3.44 4.94 4.83 2.8 1.38 5.8 1.38 3.05 0 5.87-1.38 2.83-1.39 5-4.83 2.18-3.45 3.48-9.27t1.3-14.69"/></svg>