<svg xmlns="http://www.w3.org/2000/svg" width="400" height="100" viewBox="0 0 400 100"><rect width="100%" height="100%" fill="#111"/><path fill="#31343C" d="M93.675 54.445h11v-11.82q0-1.68.22-3.7zm16.37 0h4.55v3.58q0 .5-.32.86-.33.36-.93.36h-3.3v8.83h-5.37v-8.83h-15.25q-.63 0-1.1-.38-.48-.39-.6-.97l-.65-3.12 17.12-22.88h5.85zm33.58-4.44q0 4.72-1.01 8.21-1.02 3.48-2.8 5.76-1.79 2.27-4.23 3.39-2.44 1.11-5.26 1.11-2.83 0-5.24-1.11-2.41-1.12-4.19-3.39-1.77-2.28-2.77-5.76-1-3.49-1-8.21 0-4.76 1-8.23 1-3.48 2.77-5.75 1.78-2.28 4.19-3.39t5.24-1.11q2.82 0 5.26 1.11t4.23 3.39q1.78 2.27 2.8 5.75 1.01 3.47 1.01 8.23m-6.38 0q0-3.93-.57-6.51-.58-2.57-1.54-4.1-.96-1.52-2.21-2.13-1.25-.62-2.6-.62-1.33 0-2.56.62-1.24.61-2.19 2.13-.95 1.53-1.51 4.1-.57 2.58-.57 6.51 0 3.92.57 6.49.56 2.58 1.51 4.1.95 1.53 2.19 2.14 1.23.61 2.56.61 1.35 0 2.6-.61t2.21-2.14q.96-1.52 1.54-4.1.57-2.57.57-6.49m35.38 0q0 4.72-1.01 8.21-1.02 3.48-2.8 5.76-1.79 2.27-4.23 3.39-2.44 1.11-5.26 1.11-2.83 0-5.24-1.11-2.41-1.12-4.19-3.39-1.77-2.28-2.77-5.76-1-3.49-1-8.21 0-4.76 1-8.23 1-3.48 2.77-5.75 1.78-2.28 4.19-3.39t5.24-1.11q2.82 0 5.26 1.11t4.23 3.39q1.78 2.27 2.8 5.75 1.01 3.47 1.01 8.23m-6.38 0q0-3.93-.57-6.51-.58-2.57-1.54-4.1-.96-1.52-2.21-2.13-1.25-.62-2.6-.62-1.33 0-2.56.62-1.24.61-2.19 2.13-.95 1.53-1.51 4.1-.57 2.58-.57 6.51 0 3.92.57 6.49.56 2.58 1.51 4.1.95 1.53 2.19 2.14 1.23.61 2.56.61 1.35 0 2.6-.61t2.21-2.14q.96-1.52 1.54-4.1.57-2.57.57-6.49m46.08 9.79-3.28 3.23-8.47-8.48-8.55 8.53-3.28-3.22 8.55-8.58-8.15-8.15 3.25-3.25 8.15 8.15 8.1-8.1 3.3 3.25-8.12 8.12zm34.22 3.65h6.5v4.63h-20v-4.63h7.33v-21.07q0-1.25.07-2.58l-5.2 4.35q-.45.35-.88.44-.44.09-.83.01-.39-.07-.69-.26t-.45-.41l-1.95-2.68 11.03-9.37h5.07zm37.38-13.44q0 4.72-1.01 8.21-1.01 3.48-2.8 5.76-1.79 2.27-4.23 3.39-2.44 1.11-5.26 1.11-2.83 0-5.24-1.11-2.41-1.12-4.19-3.39-1.77-2.28-2.77-5.76-1-3.49-1-8.21 0-4.76 1-8.23 1-3.48 2.77-5.75 1.78-2.28 4.19-3.39t5.24-1.11q2.82 0 5.26 1.11t4.23 3.39q1.79 2.27 2.8 5.75 1.01 3.47 1.01 8.23m-6.38 0q0-3.93-.57-6.51-.57-2.57-1.54-4.1-.96-1.52-2.21-2.13-1.25-.62-2.6-.62-1.33 0-2.56.62-1.24.61-2.19 2.13-.95 1.53-1.51 4.1-.57 2.58-.57 6.51 0 3.92.57 6.49.56 2.58 1.51 4.1.95 1.53 2.19 2.14 1.23.61 2.56.61 1.35 0 2.6-.61t2.21-2.14q.97-1.52 1.54-4.1.57-2.57.57-6.49m35.38 0q0 4.72-1.01 8.21-1.01 3.48-2.8 5.76-1.79 2.27-4.23 3.39-2.44 1.11-5.26 1.11-2.83 0-5.24-1.11-2.41-1.12-4.19-3.39-1.77-2.28-2.77-5.76-1-3.49-1-8.21 0-4.76 1-8.23 1-3.48 2.77-5.75 1.78-2.28 4.19-3.39t5.24-1.11q2.82 0 5.26 1.11t4.23 3.39q1.79 2.27 2.8 5.75 1.01 3.47 1.01 8.23m-6.38 0q0-3.93-.57-6.51-.57-2.57-1.54-4.1-.96-1.52-2.21-2.13-1.25-.62-2.6-.62-1.33 0-2.56.62-1.24.61-2.19 2.13-.95 1.53-1.51 4.1-.57 2.58-.57 6.51 0 3.92.57 6.49.56 2.58 1.51 4.1.95 1.53 2.19 2.14 1.23.61 2.56.61 1.35 0 2.6-.61t2.21-2.14q.97-1.52 1.54-4.1.57-2.57.57-6.49"/></svg>