<svg xmlns="http://www.w3.org/2000/svg" width="343" height="148" viewBox="0 0 343 148"><rect width="100%" height="100%" fill="#111"/><path fill="#aaa" d="m72.56 67.17-2.99-.53q.34-2.39 1.33-4.2.99-1.8 2.47-3.01 1.49-1.21 3.41-1.82T80.9 57q2.3 0 4.16.66 1.85.66 3.16 1.82t2.01 2.72q.7 1.57.7 3.38 0 1.59-.35 2.8-.36 1.21-1.03 2.1-.66.9-1.65 1.52t-2.23 1.04q2.99.94 4.46 2.87t1.47 4.85q0 2.49-.92 4.4t-2.48 3.2q-1.57 1.3-3.63 1.97t-4.36.67q-2.5 0-4.37-.58-1.86-.57-3.24-1.7t-2.34-2.76q-.97-1.63-1.66-3.77l2.51-1.04q.99-.41 1.85-.21.86.19 1.25.93.42.8.91 1.58.49.79 1.18 1.4t1.63.98q.93.38 2.22.38 1.44 0 2.53-.47 1.08-.47 1.8-1.23.73-.76 1.08-1.69.36-.93.36-1.87 0-1.2-.25-2.18-.26-.97-1.06-1.66-.81-.69-2.31-1.09-1.51-.39-4.04-.39v-4.04q2.09-.03 3.47-.39 1.38-.37 2.2-1.03.82-.65 1.14-1.57t.32-2.03q0-2.34-1.31-3.56t-3.5-1.22q-1.01 0-1.86.29-.85.28-1.53.8t-1.14 1.21-.69 1.52q-.39 1.05-1.02 1.4-.63.34-1.78.16m27.46 10.92h10.12V67.22q0-1.54.2-3.41zm15.06 0h4.19v3.29q0 .46-.3.8-.3.33-.85.33h-3.04v8.12h-4.94v-8.12H96.11q-.58 0-1.01-.36-.44-.35-.56-.88l-.59-2.88 15.75-21.04h5.38zm10.84-10.92-2.99-.53q.34-2.39 1.33-4.2.99-1.8 2.47-3.01 1.49-1.21 3.41-1.82t4.12-.61q2.3 0 4.16.66 1.85.66 3.16 1.82t2.01 2.72q.7 1.57.7 3.38 0 1.59-.35 2.8-.36 1.21-1.03 2.1-.66.9-1.65 1.52t-2.23 1.04q2.99.94 4.46 2.87t1.47 4.85q0 2.49-.92 4.4t-2.48 3.2q-1.57 1.3-3.63 1.97t-4.36.67q-2.5 0-4.37-.58-1.86-.57-3.24-1.7t-2.34-2.76q-.97-1.63-1.66-3.77l2.51-1.04q.99-.41 1.85-.21.86.19 1.25.93.42.8.91 1.58.49.79 1.18 1.4t1.63.98q.93.38 2.22.38 1.44 0 2.53-.47 1.08-.47 1.8-1.23.73-.76 1.08-1.69.36-.93.36-1.87 0-1.2-.25-2.18-.26-.97-1.06-1.66-.81-.69-2.31-1.09-1.51-.39-4.04-.39v-4.04q2.09-.03 3.47-.39 1.38-.37 2.2-1.03.82-.65 1.14-1.57t.32-2.03q0-2.34-1.31-3.56t-3.5-1.22q-1.01 0-1.86.29-.85.28-1.53.8t-1.14 1.21-.69 1.52q-.39 1.05-1.02 1.4-.63.34-1.78.16m56.58 15.85-3.02 2.96-7.79-7.79-7.87 7.84-3.01-2.97 7.86-7.89-7.5-7.49 2.99-2.99 7.5 7.49 7.45-7.45 3.04 2.99-7.47 7.48zm31.48 3.36h5.98v4.25h-18.4v-4.25h6.74V66.99q0-1.15.07-2.37l-4.78 4q-.42.32-.82.4t-.76.01-.63-.24q-.28-.17-.42-.38l-1.79-2.46 10.14-8.62h4.67zm15.11-8.29h10.12V67.22q0-1.54.21-3.41zm15.07 0h4.18v3.29q0 .46-.29.8-.3.33-.86.33h-3.03v8.12h-4.95v-8.12h-14.03q-.57 0-1.01-.36-.44-.35-.55-.88l-.6-2.88 15.76-21.04h5.38zm18.7 8.47q1.4 0 2.46-.4 1.06-.41 1.78-1.12.73-.71 1.09-1.7.37-.99.37-2.14 0-2.74-1.52-4.14-1.51-1.4-4.18-1.4t-4.19 1.4-1.52 4.14q0 1.15.37 2.14t1.09 1.7q.73.71 1.79 1.12 1.05.4 2.46.4m0-25.28q-1.27 0-2.19.39t-1.53 1.05-.89 1.51q-.29.85-.29 1.79 0 .99.24 1.92t.82 1.66q.57.72 1.51 1.16.95.44 2.33.44t2.32-.44 1.52-1.16q.57-.73.82-1.66.24-.93.24-1.92 0-.94-.3-1.79t-.9-1.51-1.52-1.05-2.18-.39m5.61 12.01q3.04.99 4.48 3.02 1.45 2.04 1.45 4.98 0 2.21-.84 4-.84 1.8-2.35 3.06-1.52 1.27-3.65 1.96t-4.7.69q-2.58 0-4.71-.69-2.12-.69-3.64-1.96-1.52-1.26-2.36-3.06-.84-1.79-.84-4 0-2.94 1.45-4.98 1.45-2.03 4.49-3.02-2.42-1.01-3.63-2.88-1.2-1.86-1.2-4.48 0-1.89.77-3.52t2.15-2.84 3.3-1.89 4.22-.68 4.22.68 3.3 1.89 2.15 2.84.77 3.52q0 2.62-1.21 4.48-1.21 1.87-3.62 2.88"/></svg>