<svg xmlns="http://www.w3.org/2000/svg" width="1900" height="1100" viewBox="0 0 1900 1100"><rect width="100%" height="100%" fill="#ddd"/><path fill="#31343C" d="M452.85 603.8h26v18.5h-80v-18.5h29.3v-84.3q0-5 .3-10.3l-20.8 17.4q-1.8 1.4-3.55 1.75t-3.3.05-2.75-1.05-1.8-1.65l-7.8-10.7 44.1-37.5h20.3zm71.5-82.7q0 12.1 6.25 18.45t17.75 6.35q6 0 10.7-1.9t7.9-5.2 4.85-7.8 1.65-9.7q0-5.9-1.8-10.55t-5.1-7.85-7.85-4.9-9.95-1.7q-5.6 0-10.1 1.85t-7.7 5.15-4.9 7.85-1.7 9.95m-12.1 101.2 44.9-56.1q1.7-2.1 3.2-4.1t2.9-4q-5 3.2-11 4.85t-12.6 1.65q-7.5 0-14.7-2.6t-12.8-7.85-9.05-13-3.45-18.15q0-9.7 3.6-18.2t10.1-14.9 15.6-10.1 20.1-3.7q11.1 0 19.95 3.5t15.1 9.8 9.6 15.1 3.35 19.3q0 6.7-1.15 12.7t-3.25 11.55-5.1 10.85-6.7 10.5l-33.1 47.2q-1.7 2.4-5.1 4.05t-7.7 1.65zm206.1-72.3q0 18.9-4.05 32.85t-11.2 23.05-16.9 13.55-21.05 4.45-20.95-4.45-16.75-13.55-11.1-23.05-4-32.85q0-19 4-32.9t11.1-23 16.75-13.55 20.95-4.45 21.05 4.45 16.9 13.55 11.2 23 4.05 32.9m-25.5 0q0-15.7-2.3-26t-6.15-16.4-8.85-8.55-10.4-2.45q-5.3 0-10.25 2.45t-8.75 8.55-6.05 16.4-2.25 26 2.25 26 6.05 16.4 8.75 8.55 10.25 2.45q5.4 0 10.4-2.45t8.85-8.55 6.15-16.4 2.3-26m141.5 0q0 18.9-4.05 32.85t-11.2 23.05-16.9 13.55-21.05 4.45-20.95-4.45-16.75-13.55-11.1-23.05-4-32.85q0-19 4-32.9t11.1-23 16.75-13.55 20.95-4.45 21.05 4.45 16.9 13.55 11.2 23 4.05 32.9m-25.5 0q0-15.7-2.3-26t-6.15-16.4-8.85-8.55-10.4-2.45q-5.3 0-10.25 2.45t-8.75 8.55-6.05 16.4-2.25 26 2.25 26 6.05 16.4 8.75 8.55 10.25 2.45q5.4 0 10.4-2.45t8.85-8.55 6.15-16.4 2.3-26m184.3 39.2-13.1 12.9-33.9-33.9-34.2 34.1-13.1-12.9 34.2-34.3-32.6-32.6 13-13 32.6 32.6 32.4-32.4 13.2 13-32.5 32.5zm136.9 14.6h26v18.5h-80v-18.5h29.3v-84.3q0-5 .3-10.3l-20.8 17.4q-1.8 1.4-3.55 1.75t-3.3.05-2.75-1.05-1.8-1.65l-7.8-10.7 44.1-37.5h20.3zm116 0h26v18.5h-80v-18.5h29.3v-84.3q0-5 .3-10.3l-20.8 17.4q-1.8 1.4-3.55 1.75t-3.3.05-2.75-1.05-1.8-1.65l-7.8-10.7 44.1-37.5h20.3zm149.5-53.8q0 18.9-4.05 32.85t-11.2 23.05-16.9 13.55-21.05 4.45-20.95-4.45-16.75-13.55-11.1-23.05-4-32.85q0-19 4-32.9t11.1-23 16.75-13.55 20.95-4.45 21.05 4.45 16.9 13.55 11.2 23 4.05 32.9m-25.5 0q0-15.7-2.3-26t-6.15-16.4-8.85-8.55-10.4-2.45q-5.3 0-10.25 2.45t-8.75 8.55-6.05 16.4-2.25 26 2.25 26 6.05 16.4 8.75 8.55 10.25 2.45q5.4 0 10.4-2.45t8.85-8.55 6.15-16.4 2.3-26m141.5 0q0 18.9-4.05 32.85t-11.2 23.05-16.9 13.55-21.05 4.45-20.95-4.45-16.75-13.55-11.1-23.05-4-32.85q0-19 4-32.9t11.1-23 16.75-13.55 20.95-4.45 21.05 4.45 16.9 13.55 11.2 23 4.05 32.9m-25.5 0q0-15.7-2.3-26t-6.15-16.4-8.85-8.55-10.4-2.45q-5.3 0-10.25 2.45t-8.75 8.55-6.05 16.4-2.25 26 2.25 26 6.05 16.4 8.75 8.55 10.25 2.45q5.4 0 10.4-2.45t8.85-8.55 6.15-16.4 2.3-26"/></svg>