<svg xmlns="http://www.w3.org/2000/svg" width="270" height="550" viewBox="0 0 270 550"><rect width="100%" height="100%" fill="#111"/><path fill="#31343C" d="M63.915 283.875h6.68q.72 0 1.14.4.43.41.43 1.08v2.66h-17.86v-1.48q0-.45.19-.94.19-.5.6-.89l7.9-7.92q.99-1.01 1.78-1.93.78-.92 1.3-1.82t.8-1.82q.28-.93.28-1.96 0-.93-.27-1.64t-.76-1.2q-.5-.49-1.19-.73t-1.56-.24q-.79 0-1.47.22-.67.23-1.19.63-.52.41-.88.95t-.54 1.19q-.31.82-.8 1.09-.48.27-1.4.13l-2.34-.41q.27-1.88 1.04-3.29.78-1.41 1.94-2.36 1.16-.94 2.66-1.42 1.51-.48 3.23-.48 1.8 0 3.3.53 1.49.54 2.55 1.51 1.07.97 1.66 2.34t.59 3.04q0 1.44-.42 2.66-.42 1.23-1.13 2.34-.71 1.12-1.67 2.16-.95 1.05-2 2.13l-5.86 5.99q.84-.25 1.68-.39.84-.13 1.59-.13m11.58-21.89h17.98v1.93q0 .86-.18 1.39t-.36.89l-9.87 20.31q-.3.63-.86 1.07t-1.49.44h-3.23l10.07-19.89q.34-.61.67-1.13.33-.51.75-.98h-12.46q-.41 0-.72-.3-.3-.31-.3-.72zm39.18 13.02q0 3.4-.73 5.91t-2.01 4.15q-1.29 1.64-3.04 2.44-1.76.8-3.79.8-2.04 0-3.77-.8-1.74-.8-3.02-2.44t-2-4.15-.72-5.91q0-3.42.72-5.93.72-2.5 2-4.14 1.28-1.63 3.02-2.44 1.73-.8 3.77-.8 2.03 0 3.79.8 1.75.81 3.04 2.44 1.28 1.64 2.01 4.14.73 2.51.73 5.93m-4.59 0q0-2.83-.41-4.68-.42-1.86-1.11-2.96-.69-1.09-1.59-1.54-.9-.44-1.87-.44-.96 0-1.85.44-.89.45-1.57 1.54-.69 1.1-1.09 2.96-.41 1.85-.41 4.68 0 2.82.41 4.68.4 1.85 1.09 2.95.68 1.1 1.57 1.54t1.85.44q.97 0 1.87-.44t1.59-1.54 1.11-2.95q.41-1.86.41-4.68m33.18 7.05-2.36 2.32-6.1-6.1-6.16 6.14-2.36-2.32 6.16-6.18-5.87-5.86 2.34-2.34 5.87 5.86 5.83-5.83 2.38 2.34-5.85 5.85zm18.91-16.04-.91 5.42q.86-.18 1.65-.26t1.53-.08q2.05 0 3.62.61t2.63 1.69 1.6 2.53.54 3.13q0 2.07-.73 3.78t-2.02 2.92q-1.3 1.22-3.07 1.88-1.78.67-3.86.67-1.23 0-2.33-.25-1.09-.26-2.06-.68-.96-.42-1.78-.97t-1.47-1.16l1.37-1.89q.43-.61 1.14-.61.45 0 .91.28.47.29 1.08.63.6.35 1.42.63.82.29 1.97.29 1.22 0 2.16-.39.93-.4 1.56-1.11.62-.71.93-1.69.32-.98.32-2.14 0-2.12-1.24-3.32-1.23-1.19-3.64-1.19-1.86 0-3.8.68l-2.77-.79 2.16-12.64h12.85v1.89q0 .96-.59 1.55-.6.59-2.02.59zm20.88 0-.91 5.42q.86-.18 1.65-.26t1.53-.08q2.05 0 3.62.61t2.63 1.69 1.6 2.53.54 3.13q0 2.07-.73 3.78t-2.02 2.92q-1.3 1.22-3.07 1.88-1.78.67-3.86.67-1.23 0-2.33-.25-1.09-.26-2.06-.68-.96-.42-1.78-.97t-1.47-1.16l1.37-1.89q.43-.61 1.14-.61.45 0 .91.28.47.29 1.08.63.6.35 1.42.63.82.29 1.97.29 1.22 0 2.16-.39.93-.4 1.56-1.11.62-.71.93-1.69.32-.98.32-2.14 0-2.12-1.24-3.32-1.23-1.19-3.64-1.19-1.86 0-3.8.68l-2.77-.79 2.16-12.64h12.85v1.89q0 .96-.59 1.55-.6.59-2.02.59zm32.64 8.99q0 3.4-.73 5.91t-2.02 4.15q-1.28 1.64-3.04 2.44-1.75.8-3.79.8-2.03 0-3.77-.8t-3.01-2.44q-1.28-1.64-2-4.15t-.72-5.91q0-3.42.72-5.93.72-2.5 2-4.14 1.27-1.63 3.01-2.44 1.74-.8 3.77-.8 2.04 0 3.79.8 1.76.81 3.04 2.44 1.29 1.64 2.02 4.14.73 2.51.73 5.93m-4.59 0q0-2.83-.42-4.68-.41-1.86-1.1-2.96-.7-1.09-1.6-1.54-.9-.44-1.87-.44-.95 0-1.84.44-.89.45-1.58 1.54-.68 1.1-1.09 2.96-.4 1.85-.4 4.68 0 2.82.4 4.68.41 1.85 1.09 2.95.69 1.1 1.58 1.54t1.84.44q.97 0 1.87-.44t1.6-1.54q.69-1.1 1.1-2.95.42-1.86.42-4.68"/></svg>