<svg xmlns="http://www.w3.org/2000/svg" width="562" height="134" viewBox="0 0 562 134"><rect width="100%" height="100%" fill="#111"/><path fill="#aaa" d="m143.42 50.28-1.71 10.09q1.61-.34 3.08-.49 1.48-.15 2.85-.15 3.82 0 6.73 1.14 2.92 1.14 4.89 3.15 1.98 2.01 2.99 4.7 1 2.7 1 5.82 0 3.85-1.36 7.03-1.35 3.18-3.77 5.45-2.41 2.26-5.71 3.5t-7.18 1.24q-2.28 0-4.32-.47-2.05-.47-3.84-1.26t-3.32-1.81q-1.52-1.02-2.73-2.16l2.55-3.52q.8-1.14 2.11-1.14.84 0 1.71.54t1.99 1.17q1.12.64 2.65 1.18 1.52.53 3.67.53 2.27 0 4.02-.74 1.74-.73 2.89-2.06 1.16-1.32 1.75-3.14.58-1.83.58-3.97 0-3.96-2.29-6.19-2.3-2.22-6.79-2.22-3.45 0-7.06 1.27l-5.16-1.47 4.02-23.52h23.92v3.52q0 1.77-1.11 2.88-1.11 1.1-3.75 1.1zm55.41-7.5-14.37 17.59-1.68 2.07q1.41-.7 3.03-1.09 1.63-.38 3.5-.38 2.75 0 5.35.9 2.59.91 4.57 2.73 1.98 1.83 3.18 4.54 1.21 2.72 1.21 6.33 0 3.39-1.24 6.35-1.24 2.97-3.49 5.18-2.24 2.21-5.41 3.48-3.16 1.28-6.98 1.28-3.89 0-6.97-1.24t-5.26-3.47-3.33-5.36q-1.16-3.13-1.16-6.95 0-3.42 1.39-7.02t4.31-7.49l11.56-15.51q.6-.8 1.75-1.37 1.16-.57 2.67-.57zm-12.5 42.21q1.98 0 3.64-.67 1.65-.67 2.84-1.88 1.19-1.2 1.86-2.83.67-1.62.67-3.53 0-2.08-.63-3.74-.64-1.66-1.81-2.81-1.17-1.16-2.82-1.76-1.64-.6-3.61-.6-1.98 0-3.59.67t-2.75 1.86q-1.13 1.19-1.77 2.81t-.64 3.5q0 2.01.56 3.67.55 1.66 1.64 2.83t2.69 1.83q1.61.65 3.72.65m39.93-1.48h12.43q1.34 0 2.13.76.79.75.79 1.99v4.96h-33.24v-2.75q0-.83.36-1.76.35-.92 1.12-1.65l14.71-14.74q1.84-1.88 3.3-3.59 1.45-1.71 2.42-3.38.98-1.68 1.49-3.4.52-1.73.52-3.64 0-1.74-.5-3.06-.5-1.33-1.42-2.23t-2.21-1.36q-1.29-.45-2.9-.45-1.48 0-2.73.42-1.26.42-2.23 1.17-.97.76-1.64 1.76-.67 1.01-1.01 2.21-.57 1.54-1.47 2.05-.9.5-2.61.23l-4.36-.77q.5-3.48 1.95-6.11 1.44-2.63 3.6-4.39t4.95-2.65q2.8-.89 6.02-.89 3.35 0 6.13.99t4.76 2.8q1.97 1.81 3.08 4.35 1.1 2.55 1.1 5.66 0 2.68-.78 4.96-.79 2.28-2.11 4.36-1.33 2.07-3.1 4.02-1.78 1.94-3.72 3.95l-10.92 11.16q1.57-.47 3.13-.72 1.56-.26 2.96-.26m69.95-3.38-4.39 4.32-11.35-11.35-11.46 11.42-4.39-4.32 11.46-11.49-10.92-10.92 4.35-4.36 10.92 10.92 10.86-10.85 4.42 4.35-10.89 10.89zm45.86 4.89h8.71v6.2h-26.8v-6.2h9.82V56.78q0-1.67.1-3.45l-6.97 5.83q-.6.47-1.19.59-.58.11-1.1.01t-.92-.35q-.41-.25-.61-.55l-2.61-3.59 14.77-12.56h6.8zm20.87-27.97-4.35-.77q.5-3.48 1.94-6.11t3.6-4.39 4.96-2.65 6.01-.89q3.35 0 6.05.96 2.7.95 4.61 2.64 1.91 1.7 2.93 3.97 1.02 2.28 1.02 4.93 0 2.31-.52 4.07t-1.49 3.06q-.97 1.31-2.41 2.21-1.44.91-3.25 1.51 4.35 1.38 6.5 4.19 2.14 2.81 2.14 7.07 0 3.62-1.34 6.4t-3.62 4.67q-2.27 1.89-5.27 2.86-3 .98-6.35.98-3.65 0-6.37-.84-2.71-.84-4.72-2.48t-3.42-4.02q-1.4-2.38-2.41-5.49l3.65-1.51q1.44-.61 2.7-.32 1.26.28 1.83 1.36.6 1.17 1.32 2.31t1.72 2.02q1.01.89 2.37 1.45 1.35.55 3.23.55 2.11 0 3.68-.69 1.58-.69 2.63-1.79 1.06-1.11 1.58-2.46.52-1.36.52-2.73 0-1.75-.37-3.17t-1.54-2.43q-1.17-1-3.37-1.57-2.19-.57-5.88-.57v-5.9q3.05-.03 5.06-.57 2.01-.53 3.2-1.49 1.19-.95 1.66-2.29t.47-2.95q0-3.42-1.91-5.19-1.91-1.78-5.09-1.78-1.48 0-2.72.42t-2.23 1.17q-.98.76-1.65 1.76-.67 1.01-1.01 2.21-.57 1.54-1.49 2.05-.92.5-2.6.23m40 15.91h14.74V57.12q0-2.25.3-4.96zm21.95 0h6.09v4.79q0 .67-.43 1.16-.44.48-1.24.48h-4.42v11.83h-7.21V79.39h-20.43q-.84 0-1.48-.51-.63-.52-.8-1.29l-.87-4.19 22.95-30.65h7.84z"/></svg>