<svg xmlns="http://www.w3.org/2000/svg" width="500" height="490" viewBox="0 0 500 490"><rect width="100%" height="100%" fill="#ddd"/><path fill="#31343C" d="m114.45 228.53-1.68 9.94q1.58-.33 3.04-.48 1.45-.15 2.8-.15 3.76 0 6.63 1.12t4.82 3.1 2.94 4.64.99 5.73q0 3.79-1.34 6.93-1.33 3.13-3.71 5.36t-5.63 3.45-7.08 1.22q-2.24 0-4.25-.46-2.02-.47-3.78-1.24-1.77-.78-3.27-1.78-1.5-1.01-2.69-2.13l2.51-3.47q.79-1.12 2.08-1.12.82 0 1.68.53t1.97 1.15q1.1.63 2.6 1.16t3.62.53q2.24 0 3.96-.73 1.71-.73 2.85-2.03t1.72-3.1q.57-1.8.57-3.91 0-3.89-2.26-6.09-2.26-2.19-6.68-2.19-3.4 0-6.96 1.25l-5.08-1.45 3.96-23.17h23.56v3.47q0 1.75-1.09 2.84-1.09 1.08-3.7 1.08zM174.28 245q0 6.24-1.33 10.84-1.34 4.6-3.7 7.61-2.36 3-5.58 4.47t-6.94 1.47q-3.73 0-6.92-1.47-3.18-1.47-5.53-4.47-2.34-3.01-3.66-7.61T139.3 245q0-6.27 1.32-10.86 1.32-4.58 3.66-7.59 2.35-3 5.53-4.47 3.19-1.47 6.92-1.47 3.72 0 6.94 1.47t5.58 4.47q2.36 3.01 3.7 7.59 1.33 4.59 1.33 10.86m-8.41 0q0-5.18-.76-8.58t-2.03-5.41-2.92-2.82-3.43-.81q-1.75 0-3.39.81-1.63.81-2.88 2.82-1.26 2.01-2 5.41t-.74 8.58.74 8.58 2 5.41q1.25 2.02 2.88 2.82 1.64.81 3.39.81 1.78 0 3.43-.81 1.65-.8 2.92-2.82 1.27-2.01 2.03-5.41t.76-8.58m46.69 0q0 6.24-1.33 10.84-1.34 4.6-3.7 7.61-2.36 3-5.58 4.47t-6.94 1.47q-3.73 0-6.92-1.47-3.18-1.47-5.53-4.47-2.34-3.01-3.66-7.61T177.58 245q0-6.27 1.32-10.86 1.32-4.58 3.66-7.59 2.35-3 5.53-4.47 3.19-1.47 6.92-1.47 3.72 0 6.94 1.47t5.58 4.47q2.36 3.01 3.7 7.59 1.33 4.59 1.33 10.86m-8.41 0q0-5.18-.76-8.58t-2.03-5.41-2.92-2.82-3.43-.81q-1.75 0-3.39.81-1.63.81-2.88 2.82-1.26 2.01-2 5.41T186 245t.74 8.58 2 5.41q1.25 2.02 2.88 2.82 1.64.81 3.39.81 1.78 0 3.43-.81 1.65-.8 2.92-2.82 1.27-2.01 2.03-5.41t.76-8.58m60.82 12.94-4.33 4.25-11.18-11.18-11.29 11.25-4.32-4.26 11.28-11.32-10.76-10.75 4.29-4.29 10.76 10.75 10.69-10.69 4.36 4.29-10.72 10.73zm28.57-7.06h14.52v-15.61q0-2.21.3-4.89zm21.62 0h6v4.71q0 .66-.42 1.14-.43.48-1.23.48h-4.35v11.65h-7.1v-11.65h-20.13q-.82 0-1.45-.51t-.79-1.27l-.86-4.13 22.61-30.19h7.72zm18.58-15.42q0 4 2.06 6.09 2.06 2.1 5.86 2.1 1.98 0 3.53-.63t2.61-1.71q1.05-1.09 1.6-2.58.54-1.48.54-3.2 0-1.95-.59-3.48-.6-1.54-1.69-2.59-1.09-1.06-2.59-1.62t-3.28-.56q-1.85 0-3.33.61-1.49.61-2.54 1.7-1.06 1.09-1.62 2.59t-.56 3.28m-4 33.4 14.82-18.51q.56-.7 1.06-1.36.49-.66.95-1.32-1.65 1.06-3.63 1.6-1.98.55-4.15.55-2.48 0-4.85-.86-2.38-.86-4.23-2.59t-2.98-4.29q-1.14-2.56-1.14-5.99 0-3.2 1.18-6 1.19-2.81 3.34-4.92 2.14-2.11 5.15-3.34 3-1.22 6.63-1.22 3.66 0 6.58 1.16 2.92 1.15 4.99 3.23 2.06 2.08 3.16 4.99 1.11 2.9 1.11 6.36 0 2.22-.38 4.2t-1.07 3.81q-.7 1.83-1.69 3.58t-2.21 3.46l-10.92 15.58q-.56.79-1.68 1.34-1.13.54-2.54.54zM397.76 245q0 6.24-1.34 10.84t-3.69 7.61q-2.36 3-5.58 4.47t-6.95 1.47-6.91-1.47q-3.19-1.47-5.53-4.47-2.34-3.01-3.66-7.61T362.78 245q0-6.27 1.32-10.86 1.32-4.58 3.66-7.59 2.34-3 5.53-4.47 3.18-1.47 6.91-1.47t6.95 1.47 5.58 4.47q2.35 3.01 3.69 7.59 1.34 4.59 1.34 10.86m-8.42 0q0-5.18-.76-8.58t-2.03-5.41-2.92-2.82-3.43-.81q-1.75 0-3.38.81t-2.89 2.82q-1.25 2.01-1.99 5.41-.75 3.4-.75 8.58t.75 8.58q.74 3.4 1.99 5.41 1.26 2.02 2.89 2.82 1.63.81 3.38.81 1.78 0 3.43-.81 1.65-.8 2.92-2.82 1.27-2.01 2.03-5.41t.76-8.58"/></svg>