<svg xmlns="http://www.w3.org/2000/svg" width="190" height="170" viewBox="0 0 190 170"><rect width="100%" height="100%" fill="#ddd"/><path fill="#31343C" d="M45.45 91.99h3.38v2.41h-10.4v-2.41h3.81V81.04q0-.65.03-1.34l-2.7 2.26q-.23.18-.46.23-.23.04-.43 0t-.36-.13q-.15-.1-.23-.22l-1.01-1.39 5.73-4.87h2.64zm9.29-10.75q0 1.58.81 2.4.82.83 2.31.83.78 0 1.39-.25t1.03-.68q.42-.42.63-1.01.22-.58.22-1.26 0-.77-.24-1.37-.23-.61-.66-1.02-.43-.42-1.02-.64t-1.3-.22q-.72 0-1.31.24-.58.24-1 .67t-.64 1.02-.22 1.29M53.17 94.4l5.84-7.29q.22-.28.41-.54.2-.26.38-.52-.65.42-1.43.63-.78.22-1.64.22-.97 0-1.91-.34t-1.66-1.02q-.73-.68-1.18-1.69t-.45-2.36q0-1.26.47-2.37.47-1.1 1.31-1.93.85-.83 2.03-1.32 1.18-.48 2.61-.48 1.45 0 2.6.46 1.15.45 1.96 1.27t1.25 1.97q.43 1.14.43 2.5 0 .88-.15 1.66t-.42 1.5-.66 1.41-.87 1.36l-4.31 6.14q-.22.31-.66.53-.44.21-1 .21zM79.96 85q0 2.46-.52 4.27-.53 1.81-1.46 3-.93 1.18-2.2 1.76-1.26.58-2.73.58t-2.73-.58q-1.25-.58-2.17-1.76-.93-1.19-1.45-3T66.18 85q0-2.47.52-4.28.52-1.8 1.45-2.99.92-1.18 2.17-1.76 1.26-.58 2.73-.58t2.73.58q1.27.58 2.2 1.76.93 1.19 1.46 2.99.52 1.81.52 4.28m-3.31 0q0-2.04-.3-3.38t-.8-2.13-1.15-1.11-1.35-.32q-.69 0-1.34.32-.64.32-1.13 1.11-.5.79-.79 2.13T69.5 85t.29 3.38.79 2.13q.49.8 1.13 1.11.65.32 1.34.32.7 0 1.35-.32.65-.31 1.15-1.11.5-.79.8-2.13t.3-3.38m23.96 5.1-1.71 1.67-4.4-4.4-4.45 4.43-1.7-1.68 4.44-4.46-4.23-4.23 1.69-1.69 4.23 4.23 4.22-4.21 1.71 1.69-4.22 4.23zm17.79 1.89h3.38v2.41h-10.4v-2.41h3.81V81.04q0-.65.04-1.34l-2.7 2.26q-.24.18-.46.23-.23.04-.43 0t-.36-.13q-.16-.1-.23-.22l-1.02-1.39 5.73-4.87h2.64zm6.22-16.39h12.98v1.39q0 .63-.13 1.01t-.26.64l-7.12 14.67q-.22.45-.62.77-.41.32-1.08.32h-2.33l7.27-14.37q.24-.44.48-.81.25-.37.54-.71h-8.99q-.3 0-.52-.22t-.22-.52zm28.3 9.4q0 2.46-.53 4.27-.52 1.81-1.45 3-.93 1.18-2.2 1.76t-2.74.58-2.72-.58q-1.26-.58-2.18-1.76-.92-1.19-1.44-3t-.52-4.27q0-2.47.52-4.28.52-1.8 1.44-2.99.92-1.18 2.18-1.76 1.25-.58 2.72-.58t2.74.58 2.2 1.76q.93 1.19 1.45 2.99.53 1.81.53 4.28m-3.32 0q0-2.04-.3-3.38-.29-1.34-.8-2.13-.5-.79-1.15-1.11t-1.35-.32q-.69 0-1.33.32t-1.14 1.11q-.49.79-.78 2.13-.3 1.34-.3 3.38t.3 3.38q.29 1.34.78 2.13.5.8 1.14 1.11.64.32 1.33.32.7 0 1.35-.32.65-.31 1.15-1.11.51-.79.8-2.13.3-1.34.3-3.38"/></svg>