<svg xmlns="http://www.w3.org/2000/svg" width="825" height="435" viewBox="0 0 825 435"><rect width="100%" height="100%" fill="#ddd"/><path fill="#31343C" d="M197.25 247.255q3.33 0 5.83-.95 2.51-.95 4.23-2.64 1.71-1.69 2.59-4.04.87-2.34.87-5.06 0-6.49-3.6-9.82-3.59-3.32-9.92-3.32-6.32 0-9.92 3.32-3.59 3.33-3.59 9.82 0 2.72.87 5.06.87 2.35 2.59 4.04 1.71 1.69 4.22 2.64t5.83.95m0-59.89q-2.99 0-5.17.92-2.18.93-3.63 2.48-1.44 1.56-2.12 3.57-.69 2.02-.69 4.26 0 2.34.58 4.55.57 2.2 1.93 3.92t3.6 2.75q2.23 1.04 5.5 1.04t5.51-1.04q2.23-1.03 3.59-2.75 1.37-1.72 1.94-3.92.57-2.21.57-4.55 0-2.24-.71-4.26-.71-2.01-2.12-3.57-1.42-1.55-3.6-2.48-2.18-.92-5.18-.92m13.3 28.45q7.19 2.34 10.63 7.16 3.43 4.83 3.43 11.8 0 5.24-1.99 9.49t-5.58 7.24q-3.6 3-8.64 4.64-5.04 1.63-11.15 1.63-6.1 0-11.14-1.63-5.04-1.64-8.64-4.64-3.6-2.99-5.59-7.24t-1.99-9.49q0-6.97 3.44-11.8 3.43-4.82 10.63-7.16-5.73-2.4-8.59-6.82-2.86-4.41-2.86-10.62 0-4.47 1.83-8.34 1.82-3.87 5.09-6.73t7.82-4.47 10-1.61 10 1.61 7.82 4.47 5.1 6.73 1.83 8.34q0 6.21-2.87 10.62-2.86 4.42-8.58 6.82m51.56 28.55h20.22q2.18 0 3.46 1.23t1.28 3.24v8.07H233v-4.47q0-1.36.58-2.86.57-1.5 1.82-2.7l23.93-23.98q3-3.05 5.37-5.83t3.95-5.5q1.58-2.73 2.42-5.54.85-2.8.85-5.91 0-2.83-.82-4.99-.82-2.15-2.32-3.62-1.49-1.47-3.59-2.21-2.1-.73-4.72-.73-2.4 0-4.44.68t-3.62 1.91q-1.58 1.22-2.67 2.86-1.09 1.63-1.64 3.59-.92 2.51-2.4 3.33-1.47.82-4.25.38l-7.08-1.25q.81-5.67 3.16-9.95 2.34-4.28 5.86-7.14 3.51-2.86 8.06-4.3 4.55-1.45 9.79-1.45 5.45 0 9.97 1.61t7.74 4.55q3.21 2.94 5.01 7.08 1.8 4.15 1.8 9.21 0 4.36-1.28 8.07t-3.43 7.09q-2.16 3.37-5.04 6.54-2.89 3.16-6.05 6.43l-17.77 18.15q2.56-.77 5.09-1.18 2.54-.41 4.83-.41m54.88-54.06-2.78 16.41q2.62-.55 5.01-.79 2.4-.25 4.64-.25 6.21 0 10.95 1.85 4.74 1.86 7.96 5.13 3.21 3.27 4.85 7.65 1.63 4.39 1.63 9.46 0 6.27-2.2 11.44-2.21 5.18-6.14 8.86-3.92 3.68-9.29 5.7-5.37 2.01-11.69 2.01-3.7 0-7.03-.76-3.32-.76-6.24-2.04-2.91-1.29-5.39-2.95t-4.45-3.51l4.15-5.73q1.3-1.85 3.43-1.85 1.36 0 2.78.87 1.42.88 3.24 1.91 1.83 1.04 4.31 1.91t5.97.87q3.7 0 6.54-1.2 2.83-1.2 4.71-3.35t2.83-5.12q.96-2.97.96-6.46 0-6.43-3.74-10.06-3.73-3.62-11.03-3.62-5.62 0-11.5 2.07l-8.39-2.4 6.54-38.26h38.91v5.73q0 2.88-1.8 4.68t-6.1 1.8zm122.13 48.56-7.14 7.03-18.47-18.47-18.64 18.58-7.14-7.03 18.64-18.69-17.77-17.77 7.09-7.09 17.76 17.77 17.66-17.66 7.2 7.09-17.72 17.71zm47.2-11.66h23.98v-25.78q0-3.65.49-8.07zm35.7 0h9.92v7.79q0 1.09-.71 1.88t-2.02.79h-7.19v19.24H510.3v-19.24h-33.24q-1.37 0-2.4-.84-1.04-.85-1.31-2.1l-1.42-6.81 37.34-49.87h12.75zm25.67-25.89-7.09-1.25q.82-5.67 3.16-9.95 2.35-4.28 5.86-7.14 3.52-2.86 8.07-4.3 4.55-1.45 9.78-1.45 5.45 0 9.84 1.55 4.39 1.56 7.49 4.31 3.11 2.75 4.77 6.46 1.66 3.7 1.66 8.01 0 3.76-.84 6.62-.85 2.86-2.43 4.99-1.58 2.12-3.92 3.59-2.34 1.48-5.29 2.46 7.09 2.23 10.58 6.81 3.48 4.58 3.48 11.5 0 5.89-2.18 10.41t-5.88 7.6q-3.71 3.08-8.59 4.66-4.87 1.58-10.32 1.58-5.94 0-10.36-1.36-4.41-1.36-7.68-4.03t-5.56-6.54-3.93-8.94l5.94-2.45q2.35-.98 4.39-.52 2.05.46 2.97 2.21.98 1.9 2.15 3.76 1.18 1.85 2.81 3.29 1.64 1.45 3.84 2.35 2.21.9 5.26.9 3.44 0 6-1.12t4.28-2.92q1.71-1.8 2.56-4 .84-2.21.84-4.44 0-2.84-.6-5.15-.6-2.32-2.5-3.96-1.91-1.63-5.48-2.56-3.57-.92-9.57-.92v-9.6q4.96-.05 8.23-.92t5.21-2.43q1.93-1.55 2.7-3.73.76-2.18.76-4.8 0-5.56-3.11-8.44-3.1-2.89-8.28-2.89-2.4 0-4.42.68-2.01.68-3.62 1.91-1.61 1.22-2.7 2.86-1.09 1.63-1.63 3.59-.93 2.51-2.43 3.33t-4.22.38m75.15-11.01-2.78 16.41q2.62-.55 5.02-.79 2.4-.25 4.63-.25 6.21 0 10.95 1.85 4.75 1.86 7.96 5.13 3.22 3.27 4.85 7.65 1.64 4.39 1.64 9.46 0 6.27-2.21 11.44-2.21 5.18-6.13 8.86-3.93 3.68-9.29 5.7-5.37 2.01-11.69 2.01-3.71 0-7.03-.76-3.33-.76-6.24-2.04-2.92-1.29-5.4-2.95t-4.44-3.51l4.14-5.73q1.31-1.85 3.43-1.85 1.37 0 2.78.87 1.42.88 3.25 1.91 1.82 1.04 4.3 1.91t5.97.87q3.71 0 6.54-1.2t4.71-3.35 2.84-5.12q.95-2.97.95-6.46 0-6.43-3.73-10.06-3.74-3.62-11.04-3.62-5.61 0-11.5 2.07l-8.39-2.4 6.54-38.26h38.91v5.73q0 2.88-1.8 4.68-1.79 1.8-6.1 1.8z"/></svg>