<svg xmlns="http://www.w3.org/2000/svg" width="1100" height="550" viewBox="0 0 1100 550"><rect width="100%" height="100%" fill="#ddd"/><path fill="#aaa" d="M266.75 309.705h16.77v11.93h-51.6v-11.93h18.9v-54.38q0-3.22.19-6.64l-13.41 11.22q-1.16.91-2.29 1.13-1.13.23-2.13.03-1-.19-1.78-.67-.77-.49-1.16-1.07l-5.03-6.9 28.45-24.19h13.09zm74.82 0h16.77v11.93h-51.6v-11.93h18.9v-54.38q0-3.22.19-6.64l-13.41 11.22q-1.16.91-2.29 1.13-1.13.23-2.13.03-1-.19-1.78-.67-.77-.49-1.16-1.07l-5.03-6.9 28.45-24.19h13.09zm96.43-34.7q0 12.19-2.61 21.18-2.62 9-7.23 14.87t-10.9 8.74-13.58 2.87q-7.28 0-13.51-2.87-6.22-2.87-10.8-8.74t-7.16-14.87q-2.58-8.99-2.58-21.18 0-12.26 2.58-21.22 2.58-8.97 7.16-14.84t10.8-8.74q6.23-2.87 13.51-2.87 7.29 0 13.58 2.87t10.9 8.74 7.23 14.84q2.61 8.96 2.61 21.22m-16.45 0q0-10.13-1.48-16.77-1.49-6.65-3.97-10.58-2.48-3.94-5.71-5.52-3.22-1.58-6.71-1.58-3.41 0-6.61 1.58-3.19 1.58-5.64 5.52-2.45 3.93-3.9 10.58-1.45 6.64-1.45 16.77 0 10.12 1.45 16.77 1.45 6.64 3.9 10.57 2.45 3.94 5.64 5.52 3.2 1.58 6.61 1.58 3.49 0 6.71-1.58 3.23-1.58 5.71-5.52 2.48-3.93 3.97-10.57 1.48-6.65 1.48-16.77m91.27 0q0 12.19-2.61 21.18-2.62 9-7.23 14.87t-10.9 8.74-13.58 2.87q-7.28 0-13.51-2.87-6.22-2.87-10.8-8.74t-7.16-14.87q-2.58-8.99-2.58-21.18 0-12.26 2.58-21.22 2.58-8.97 7.16-14.84t10.8-8.74q6.23-2.87 13.51-2.87 7.29 0 13.58 2.87t10.9 8.74 7.23 14.84q2.61 8.96 2.61 21.22m-16.45 0q0-10.13-1.48-16.77-1.49-6.65-3.97-10.58-2.48-3.94-5.71-5.52-3.22-1.58-6.71-1.58-3.41 0-6.61 1.58-3.19 1.58-5.64 5.52-2.45 3.93-3.9 10.58-1.45 6.64-1.45 16.77 0 10.12 1.45 16.77 1.45 6.64 3.9 10.57 2.45 3.94 5.64 5.52 3.2 1.58 6.61 1.58 3.49 0 6.71-1.58 3.23-1.58 5.71-5.52 2.48-3.93 3.97-10.57 1.48-6.65 1.48-16.77m118.87 25.28-8.45 8.32-21.86-21.86-22.06 21.99-8.45-8.32 22.06-22.12-21.03-21.03 8.39-8.39 21.02 21.03 20.9-20.9 8.52 8.39-20.97 20.96zm67.79-57.47-3.29 19.42q3.1-.65 5.94-.94t5.48-.29q7.35 0 12.97 2.19 5.61 2.2 9.41 6.07 3.81 3.87 5.74 9.06 1.94 5.19 1.94 11.19 0 7.42-2.61 13.54-2.62 6.13-7.26 10.49-4.65 4.35-11 6.74-6.35 2.38-13.83 2.38-4.39 0-8.32-.9-3.94-.9-7.39-2.42t-6.38-3.48q-2.94-1.97-5.26-4.16l4.9-6.78q1.55-2.19 4.06-2.19 1.62 0 3.29 1.03 1.68 1.04 3.84 2.26 2.16 1.23 5.1 2.26 2.93 1.03 7.06 1.03 4.39 0 7.74-1.42t5.58-3.97q2.22-2.54 3.35-6.06 1.13-3.51 1.13-7.64 0-7.61-4.42-11.9-4.41-4.29-13.06-4.29-6.64 0-13.61 2.45l-9.93-2.84 7.74-45.28h46.05v6.78q0 3.41-2.13 5.54-2.12 2.13-7.22 2.13zm74.82 0-3.29 19.42q3.1-.65 5.94-.94t5.48-.29q7.35 0 12.97 2.19 5.61 2.2 9.41 6.07 3.81 3.87 5.74 9.06 1.94 5.19 1.94 11.19 0 7.42-2.61 13.54-2.62 6.13-7.26 10.49-4.64 4.35-11 6.74-6.35 2.38-13.83 2.38-4.39 0-8.32-.9-3.94-.9-7.39-2.42t-6.38-3.48q-2.94-1.97-5.26-4.16l4.9-6.78q1.55-2.19 4.06-2.19 1.62 0 3.29 1.03 1.68 1.04 3.84 2.26 2.16 1.23 5.1 2.26 2.93 1.03 7.06 1.03 4.39 0 7.74-1.42t5.58-3.97q2.22-2.54 3.35-6.06 1.13-3.51 1.13-7.64 0-7.61-4.42-11.9-4.41-4.29-13.06-4.29-6.64 0-13.61 2.45l-9.93-2.84 7.74-45.28h46.05v6.78q0 3.41-2.13 5.54-2.12 2.13-7.22 2.13zm116.94 32.19q0 12.19-2.61 21.18-2.61 9-7.22 14.87-4.62 5.87-10.9 8.74-6.29 2.87-13.58 2.87t-13.51-2.87q-6.23-2.87-10.81-8.74t-7.16-14.87q-2.58-8.99-2.58-21.18 0-12.26 2.58-21.22 2.58-8.97 7.16-14.84t10.81-8.74q6.22-2.87 13.51-2.87t13.58 2.87q6.28 2.87 10.9 8.74 4.61 5.87 7.22 14.84 2.61 8.96 2.61 21.22m-16.45 0q0-10.13-1.48-16.77-1.48-6.65-3.97-10.58-2.48-3.94-5.7-5.52-3.23-1.58-6.71-1.58-3.42 0-6.61 1.58-3.2 1.58-5.65 5.52-2.45 3.93-3.9 10.58-1.45 6.64-1.45 16.77 0 10.12 1.45 16.77 1.45 6.64 3.9 10.57 2.45 3.94 5.65 5.52 3.19 1.58 6.61 1.58 3.48 0 6.71-1.58 3.22-1.58 5.7-5.52 2.49-3.93 3.97-10.57 1.48-6.65 1.48-16.77"/></svg>