<svg xmlns="http://www.w3.org/2000/svg" width="545" height="798" viewBox="0 0 545 798"><rect width="100%" height="100%" fill="#111"/><path fill="#aaa" d="m125.135 381.035-1.84 10.83q1.73-.36 3.31-.52 1.59-.16 3.06-.16 4.11 0 7.24 1.22 3.13 1.23 5.25 3.39 2.13 2.16 3.21 5.06 1.08 2.89 1.08 6.24 0 4.14-1.46 7.56t-4.05 5.85-6.14 3.76q-3.54 1.34-7.72 1.34-2.45 0-4.64-.51-2.2-.5-4.13-1.35-1.92-.84-3.56-1.94t-2.93-2.32l2.73-3.78q.87-1.23 2.27-1.23.9 0 1.84.58.93.57 2.14 1.26 1.2.68 2.84 1.26 1.64.57 3.94.57 2.45 0 4.32-.79 1.88-.79 3.12-2.21t1.87-3.39q.63-1.96.63-4.26 0-4.25-2.47-6.64-2.46-2.4-7.29-2.4-3.7 0-7.59 1.37l-5.55-1.58 4.32-25.28h25.71v3.78q0 1.91-1.19 3.1t-4.03 1.19zm35.1 24.37h15.84v-17.03q0-2.41.32-5.33zm23.58 0h6.55v5.15q0 .72-.47 1.24t-1.33.52h-4.75v12.71h-7.74v-12.71h-21.96q-.9 0-1.59-.56-.68-.55-.86-1.38l-.94-4.5 24.66-32.94h8.43zm24.84-24.37-1.84 10.83q1.73-.36 3.31-.52 1.59-.16 3.06-.16 4.11 0 7.24 1.22 3.13 1.23 5.25 3.39 2.13 2.16 3.21 5.06 1.08 2.89 1.08 6.24 0 4.14-1.46 7.56t-4.05 5.85-6.14 3.76q-3.54 1.34-7.72 1.34-2.45 0-4.64-.51-2.2-.5-4.13-1.35-1.92-.84-3.56-1.94t-2.93-2.32l2.73-3.78q.87-1.23 2.27-1.23.9 0 1.84.58.93.57 2.14 1.26 1.2.68 2.84 1.26 1.64.57 3.94.57 2.45 0 4.32-.79 1.88-.79 3.12-2.21t1.87-3.39q.63-1.96.63-4.26 0-4.25-2.47-6.64-2.46-2.4-7.29-2.4-3.7 0-7.59 1.37l-5.55-1.58 4.32-25.28h25.71v3.78q0 1.91-1.19 3.1t-4.03 1.19zm80.67 32.07-4.71 4.65-12.21-12.21-12.31 12.28-4.72-4.64 12.32-12.35-11.74-11.74 4.68-4.68 11.74 11.74 11.66-11.67 4.75 4.68-11.7 11.7zm24.73-40.14h35.97v3.86q0 1.72-.36 2.79-.36 1.06-.72 1.78l-19.73 40.61q-.61 1.26-1.73 2.14-1.11.88-2.99.88h-6.44l20.12-39.78q.69-1.22 1.35-2.25.67-1.03 1.5-1.96h-24.91q-.83 0-1.44-.61-.62-.62-.62-1.44zm50.3 15.63q0 4.35 2.25 6.64t6.39 2.29q2.16 0 3.85-.69 1.69-.68 2.84-1.87t1.75-2.81q.59-1.62.59-3.49 0-2.12-.65-3.8-.64-1.67-1.83-2.82-1.19-1.16-2.83-1.77t-3.58-.61q-2.02 0-3.64.67-1.62.66-2.77 1.85t-1.76 2.83q-.61 1.63-.61 3.58m-4.36 36.43 16.16-20.2q.62-.75 1.16-1.47t1.04-1.44q-1.8 1.15-3.96 1.74-2.16.6-4.54.6-2.7 0-5.29-.94-2.59-.93-4.61-2.82-2.01-1.89-3.25-4.68-1.25-2.79-1.25-6.54 0-3.49 1.3-6.55t3.64-5.36q2.34-2.31 5.61-3.64 3.28-1.33 7.24-1.33 3.99 0 7.18 1.26t5.44 3.53q2.25 2.26 3.45 5.43 1.21 3.17 1.21 6.95 0 2.41-.42 4.57-.41 2.16-1.17 4.16-.75 2-1.83 3.91-1.08 1.9-2.41 3.78l-11.92 16.99q-.61.86-1.84 1.46-1.22.59-2.77.59zm55.12-6.37q2.19 0 3.85-.63 1.65-.63 2.79-1.75 1.13-1.11 1.71-2.66.57-1.55.57-3.35 0-4.28-2.37-6.48-2.38-2.2-6.55-2.2-4.18 0-6.56 2.2-2.37 2.2-2.37 6.48 0 1.8.57 3.35.58 1.55 1.71 2.66 1.14 1.12 2.79 1.75 1.66.63 3.86.63m0-39.57q-1.98 0-3.42.62-1.44.61-2.4 1.63-.95 1.03-1.4 2.36t-.45 2.81q0 1.55.38 3.01.37 1.45 1.27 2.59.9 1.13 2.38 1.82 1.48.68 3.64.68t3.63-.68q1.48-.69 2.38-1.82.9-1.14 1.28-2.59.37-1.46.37-3.01 0-1.48-.46-2.81-.47-1.33-1.41-2.36-.93-1.02-2.37-1.63-1.44-.62-3.42-.62m8.78 18.8q4.75 1.54 7.02 4.73t2.27 7.79q0 3.46-1.32 6.27-1.31 2.81-3.69 4.79-2.37 1.98-5.7 3.06t-7.36 1.08q-4.04 0-7.37-1.08t-5.7-3.06q-2.38-1.98-3.69-4.79-1.32-2.81-1.32-6.27 0-4.6 2.27-7.79t7.02-4.73q-3.78-1.59-5.67-4.5-1.89-2.92-1.89-7.02 0-2.96 1.21-5.51 1.2-2.56 3.36-4.45t5.17-2.95 6.61-1.06 6.6 1.06q3.01 1.06 5.17 2.95t3.36 4.45q1.21 2.55 1.21 5.51 0 4.1-1.89 7.02-1.89 2.91-5.67 4.5"/></svg>